<?xml version="1.0" encoding="utf-8" standalone="yes"?>
<!DOCTYPE svg PUBLIC "-//W3C//DTD SVG 1.1//EN" "http://www.w3.org/Graphics/SVG/1.1/DTD/svg11.dtd">
<svg width="650" height="650" viewBox="0 0 650 650" style="fill:none;stroke:none;fill-rule:evenodd;clip-rule:evenodd;stroke-linecap:round;stroke-linejoin:round;stroke-miterlimit:1.5;" version="1.1" xmlns="http://www.w3.org/2000/svg" xmlns:xlink="http://www.w3.org/1999/xlink"><style class="text-font-style fontImports" data-font-family="Roboto">@import url('https://fonts.googleapis.com/css2?family=Roboto:wght@400;700&amp;display=block');</style><g id="items" style="isolation: isolate"><g id="blend" style="mix-blend-mode: normal"><g id="g-root-0.g-0_fr_i0adyx1c1hs0e-fill" data-item-order="-331163" transform="translate(63.21099853515625, 267)"></g><g id="g-root-1.g-1_1_fr_dkgvuh1c1hsso-fill" data-item-order="-331154" transform="translate(57, 210)"><g id="1.g-1_1_fr_dkgvuh1c1hsso-fill" stroke="none" fill="#4e88e7"><g><path d="M 34 151C 34.000002 187.450795 63.549208 217.000002 100.000002 217.000002C 136.450795 217.000002 166.000002 187.450795 166.000002 151.000002C 166.000002 114.549208 136.450795 85.000002 100.000002 85.000002C 63.549208 85.000002 34.000002 114.549208 34.000002 151.000002M 10 151C 10 154.313709 12.686292 157 16 157C 19.313709 157 22 154.313709 22 151C 22 147.686292 19.313709 145 16 145C 12.686292 145 10 147.686292 10 151"></path></g></g><g id="1.g-1_1_fr_dkgvuh1c1hsso-fill" stroke="none" fill="#4e88e7"><g><path d="M 109 19C 109 23.9706 104.9706 28 100 28C 95.0294 28 91 23.9706 91 19C 91 14.0294 95.0294 10 100 10C 104.9706 10 109 14.0294 109 19Z"></path></g></g></g><g id="g-root-2.g-2_fr_959ut51c1hqf6-fill" data-item-order="-331142" transform="translate(225, 285)"><g id="2.g-2_fr_959ut51c1hqf6-fill" stroke="none" fill="#3cc583"><g><path d="M 34 76C 34.000002 112.450795 63.549208 142.000002 100.000002 142.000002C 136.450795 142.000002 166.000002 112.450795 166.000002 76.000002C 166.000002 39.549208 136.450795 10.000002 100.000002 10.000002C 63.549208 10.000002 34.000002 39.549208 34.000002 76.000002M 10 76C 10 79.313709 12.686292 82 16 82C 19.313709 82 22 79.313709 22 76C 22 72.686292 19.313709 70 16 70C 12.686292 70 10 72.686292 10 76"></path></g></g><g id="2.g-2_fr_959ut51c1hqf6-fill" stroke="none" fill="#3cc583"><g><path d="M 109 208C 109 212.9706 104.9706 217 100 217C 95.0294 217 91 212.9706 91 208C 91 203.0294 95.0294 199 100 199C 104.9706 199 109 203.0294 109 208Z"></path></g></g></g><g id="g-root-3.g-3_1_fr_9muk91c1hr7w-fill" data-item-order="-331130" transform="translate(393, 210)"><g id="3.g-3_1_fr_9muk91c1hr7w-fill" stroke="none" fill="#92bd39"><g><path d="M 34 151C 34.000002 187.450795 63.549208 217.000002 100.000002 217.000002C 136.450795 217.000002 166.000002 187.450795 166.000002 151.000002C 166.000002 114.549208 136.450795 85.000002 100.000002 85.000002C 63.549208 85.000002 34.000002 114.549208 34.000002 151.000002M 10 151C 10 154.313709 12.686292 157 16 157C 19.313709 157 22 154.313709 22 151C 22 147.686292 19.313709 145 16 145C 12.686292 145 10 147.686292 10 151M 178 151C 178 154.313709 180.686292 157 184 157C 187.313709 157 190 154.313709 190 151C 190 147.686292 187.313709 145 184 145C 180.686292 145 178 147.686292 178 151"></path></g></g><g id="3.g-3_1_fr_9muk91c1hr7w-fill" stroke="none" fill="#92bd39"><g><path d="M 109 19C 109 23.9706 104.9706 28 100 28C 95.0294 28 91 23.9706 91 19C 91 14.0294 95.0294 10 100 10C 104.9706 10 109 14.0294 109 19Z"></path></g></g></g><g id="g-root--1.line_fr_9muk91c1hr7y-fill" data-item-order="-331117" transform="translate(147, 228)"></g><g id="g-root--1.line_1_fr_1ha3rqx1c1j4so-fill" data-item-order="-331113" transform="translate(483, 228)"></g><g id="g-root--1.line_2_fr_1cua9mh1c1j5ky-fill" data-item-order="-331109" transform="translate(315, 417)"></g><g id="g-root-tx_osm_1cua9mh1c1j5l0-fill" data-item-order="0" transform="translate(207, 39)"><g id="tx_osm_1cua9mh1c1j5l0-fill" stroke="none" fill="#484848"><g><text style="font: 20px &quot;Roboto&quot;, sans-serif; white-space: pre;" font-size="20px" font-family="'Roboto', sans-serif"><tspan x="16.44" y="35" dominant-baseline="ideographic">週刊OSM編集プロセス</tspan></text></g></g></g><g id="g-root-tx__qnt83d1c1j4st-fill" data-item-order="0" transform="translate(105, 123)"><g id="tx__qnt83d1c1j4st-fill" stroke="none" fill="#3a4455"><g><text style="font: bold 20px &quot;Roboto&quot;, sans-serif; white-space: pre;" font-weight="bold" font-size="20px" font-family="'Roboto', sans-serif"><tspan x="12" y="35" dominant-baseline="ideographic">情報収集</tspan></text></g></g></g><g id="g-root-tx__1lr681l1c1j66n-fill" data-item-order="0" transform="translate(441, 123)"><g id="tx__1lr681l1c1j66n-fill" stroke="none" fill="#424736"><g><text style="font: bold 20px &quot;Roboto&quot;, sans-serif; white-space: pre;" font-weight="bold" font-size="20px" font-family="'Roboto', sans-serif"><tspan x="12" y="35" dominant-baseline="ideographic">情報検証</tspan></text></g></g></g><g id="g-root-tx_osm_dccpq11c1j6dq-fill" data-item-order="0" transform="translate(45, 159)"><g id="tx_osm_dccpq11c1j6dq-fill" stroke="none" fill="#3a4455"><g><text style="font: 15px &quot;Roboto&quot;, sans-serif; white-space: pre;" font-size="15px" font-family="'Roboto', sans-serif"><tspan x="13.34" y="29" dominant-baseline="ideographic">ユーザーが週刊OSMにトピッ</tspan><tspan x="67.01" y="47" dominant-baseline="ideographic">クを提出する</tspan></text></g></g></g><g id="g-root-tx__1cvj7sp1c1j7r4-fill" data-item-order="0" transform="translate(375, 159)"><g id="tx__1cvj7sp1c1j7r4-fill" stroke="none" fill="#424736"><g><text style="font: 15px &quot;Roboto&quot;, sans-serif; white-space: pre;" font-size="15px" font-family="'Roboto', sans-serif"><tspan x="13" y="29" dominant-baseline="ideographic">編集者が情報の正確性を確認す</tspan><tspan x="110.5" y="47" dominant-baseline="ideographic">る</tspan></text></g></g></g><g id="g-root-2_140iomx1c1j5e1-fill" data-item-order="0" transform="translate(117, 321)"></g><g id="g-root-appr_dgq1bt1c1q8lh-fill" data-item-order="0" transform="translate(285, 321)"></g><g id="g-root-chec_zs6ypl1c1c4qv-fill" data-item-order="0" transform="translate(453, 321)"></g><g id="g-root-tx__uz3t1cbacy4-fill" data-item-order="0" transform="translate(249, 507)"><g id="tx__uz3t1cbacy4-fill" stroke="none" fill="#374840"><g><text style="font: bold 20px &quot;Roboto&quot;, sans-serif; white-space: pre;" font-weight="bold" font-size="20px" font-family="'Roboto', sans-serif"><tspan x="16" y="35" dominant-baseline="ideographic">公開チェック</tspan></text></g></g></g><g id="g-root-tx__1hbbho91cbabyd-fill" data-item-order="0" transform="translate(207, 543)"><g id="tx__1hbbho91cbabyd-fill" stroke="none" fill="#374840"><g><text style="font: 15px &quot;Roboto&quot;, sans-serif; white-space: pre;" font-size="15px" font-family="'Roboto', sans-serif"><tspan x="13" y="29" dominant-baseline="ideographic">システムが情報が公開されてい</tspan><tspan x="73" y="47" dominant-baseline="ideographic">るか確認する</tspan></text></g></g></g><g id="g-root-0.g-0_fr_i0adyx1c1hs0e-stroke" data-item-order="-331163" transform="translate(63.21099853515625, 267)"><g id="0.g-0_fr_i0adyx1c1hs0e-stroke" fill="none" stroke-linecap="round" stroke-linejoin="round" stroke-miterlimit="4" stroke="#484848" stroke-width="2" stroke-dasharray="5.0, 7.0"><g><path d="M 177.577985 100C 174.501585 143.5917 138.163485 178 93.788985 178C 49.414485 178 13.076485 143.5917 9.999985 100M 345.577984 88C 342.501584 44.4083 306.163484 10 261.788984 10C 217.414484 10 181.076484 44.4083 177.999984 88M 513.578 100C 510.5016 143.5917 474.1635 178 429.789 178C 385.4145 178 349.0765 143.5917 346 100"></path></g></g></g><g id="g-root-1.g-1_1_fr_dkgvuh1c1hsso-stroke" data-item-order="-331154" transform="translate(57, 210)"><g id="1.g-1_1_fr_dkgvuh1c1hsso-stroke" fill="none" stroke-linecap="round" stroke-linejoin="round" stroke-miterlimit="4" stroke="#ffffff" stroke-width="2"><g><path d="M 34 151C 34.000002 187.450795 63.549208 217.000002 100.000002 217.000002C 136.450795 217.000002 166.000002 187.450795 166.000002 151.000002C 166.000002 114.549208 136.450795 85.000002 100.000002 85.000002C 63.549208 85.000002 34.000002 114.549208 34.000002 151.000002M 10 151C 10 154.313709 12.686292 157 16 157C 19.313709 157 22 154.313709 22 151C 22 147.686292 19.313709 145 16 145C 12.686292 145 10 147.686292 10 151"></path></g></g><g id="1.g-1_1_fr_dkgvuh1c1hsso-stroke" fill="none" stroke-linecap="round" stroke-linejoin="round" stroke-miterlimit="4" stroke="#ffffff" stroke-width="2"><g><path d="M 109 19C 109 23.9706 104.9706 28 100 28C 95.0294 28 91 23.9706 91 19C 91 14.0294 95.0294 10 100 10C 104.9706 10 109 14.0294 109 19Z"></path></g></g></g><g id="g-root-2.g-2_fr_959ut51c1hqf6-stroke" data-item-order="-331142" transform="translate(225, 285)"><g id="2.g-2_fr_959ut51c1hqf6-stroke" fill="none" stroke-linecap="round" stroke-linejoin="round" stroke-miterlimit="4" stroke="#ffffff" stroke-width="2"><g><path d="M 34 76C 34.000002 112.450795 63.549208 142.000002 100.000002 142.000002C 136.450795 142.000002 166.000002 112.450795 166.000002 76.000002C 166.000002 39.549208 136.450795 10.000002 100.000002 10.000002C 63.549208 10.000002 34.000002 39.549208 34.000002 76.000002M 10 76C 10 79.313709 12.686292 82 16 82C 19.313709 82 22 79.313709 22 76C 22 72.686292 19.313709 70 16 70C 12.686292 70 10 72.686292 10 76"></path></g></g><g id="2.g-2_fr_959ut51c1hqf6-stroke" fill="none" stroke-linecap="round" stroke-linejoin="round" stroke-miterlimit="4" stroke="#ffffff" stroke-width="2"><g><path d="M 109 208C 109 212.9706 104.9706 217 100 217C 95.0294 217 91 212.9706 91 208C 91 203.0294 95.0294 199 100 199C 104.9706 199 109 203.0294 109 208Z"></path></g></g></g><g id="g-root-3.g-3_1_fr_9muk91c1hr7w-stroke" data-item-order="-331130" transform="translate(393, 210)"><g id="3.g-3_1_fr_9muk91c1hr7w-stroke" fill="none" stroke-linecap="round" stroke-linejoin="round" stroke-miterlimit="4" stroke="#ffffff" stroke-width="2"><g><path d="M 34 151C 34.000002 187.450795 63.549208 217.000002 100.000002 217.000002C 136.450795 217.000002 166.000002 187.450795 166.000002 151.000002C 166.000002 114.549208 136.450795 85.000002 100.000002 85.000002C 63.549208 85.000002 34.000002 114.549208 34.000002 151.000002M 10 151C 10 154.313709 12.686292 157 16 157C 19.313709 157 22 154.313709 22 151C 22 147.686292 19.313709 145 16 145C 12.686292 145 10 147.686292 10 151M 178 151C 178 154.313709 180.686292 157 184 157C 187.313709 157 190 154.313709 190 151C 190 147.686292 187.313709 145 184 145C 180.686292 145 178 147.686292 178 151"></path></g></g><g id="3.g-3_1_fr_9muk91c1hr7w-stroke" fill="none" stroke-linecap="round" stroke-linejoin="round" stroke-miterlimit="4" stroke="#ffffff" stroke-width="2"><g><path d="M 109 19C 109 23.9706 104.9706 28 100 28C 95.0294 28 91 23.9706 91 19C 91 14.0294 95.0294 10 100 10C 104.9706 10 109 14.0294 109 19Z"></path></g></g></g><g id="g-root--1.line_fr_9muk91c1hr7y-stroke" data-item-order="-331117" transform="translate(147, 228)"><g id="-1.line_fr_9muk91c1hr7y-stroke" fill="none" stroke-linecap="round" stroke-linejoin="round" stroke-miterlimit="4" stroke="#484848" stroke-width="2"><g><path d="M 10 67L 10 10"></path></g></g></g><g id="g-root--1.line_1_fr_1ha3rqx1c1j4so-stroke" data-item-order="-331113" transform="translate(483, 228)"><g id="-1.line_1_fr_1ha3rqx1c1j4so-stroke" fill="none" stroke-linecap="round" stroke-linejoin="round" stroke-miterlimit="4" stroke="#484848" stroke-width="2"><g><path d="M 10 67L 10 10"></path></g></g></g><g id="g-root--1.line_2_fr_1cua9mh1c1j5ky-stroke" data-item-order="-331109" transform="translate(315, 417)"><g id="-1.line_2_fr_1cua9mh1c1j5ky-stroke" fill="none" stroke-linecap="round" stroke-linejoin="round" stroke-miterlimit="4" stroke="#484848" stroke-width="2"><g><path d="M 10 67L 10 10"></path></g></g></g><g id="g-root-tx_osm_1cua9mh1c1j5l0-stroke" data-item-order="0" transform="translate(207, 39)"></g><g id="g-root-tx__qnt83d1c1j4st-stroke" data-item-order="0" transform="translate(105, 123)"></g><g id="g-root-tx__1lr681l1c1j66n-stroke" data-item-order="0" transform="translate(441, 123)"></g><g id="g-root-tx_osm_dccpq11c1j6dq-stroke" data-item-order="0" transform="translate(45, 159)"></g><g id="g-root-tx__1cvj7sp1c1j7r4-stroke" data-item-order="0" transform="translate(375, 159)"></g><g id="g-root-2_140iomx1c1j5e1-stroke" data-item-order="0" transform="translate(117, 321)"><g id="2_140iomx1c1j5e1-stroke" fill="none" stroke-linecap="round" stroke-linejoin="round" stroke-miterlimit="4" stroke="#ffffff" stroke-width="2"><g><path d="M 36.102249 18.876949L 62.220001 18.876949C 64.864502 18.876949 67.008499 21.020901 67.008499 23.6656L 67.008499 53.318748C 67.008499 55.963501 64.864502 58.107498 62.220001 58.107498L 37.453499 58.107498L 24.805799 66.844246C 23.2176 67.941498 21.050625 66.804497 21.050625 64.874252L 21.050625 58.107498L 17.781826 58.107498C 15.137125 58.107498 12.993176 55.963501 12.993176 53.318748L 12.993176 23.6656C 12.993176 21.020901 15.137125 18.876949 17.781799 18.876949L 23.147549 18.876949M 10 10M 41.264751 12.7295L 35.1185 18.87575L 41.264751 25.021999M 28.5534 41.379501C 31.163176 41.379501 33.278824 39.264 33.278824 36.654251C 33.278824 34.04435 31.163176 31.928699 28.5534 31.928699C 25.943624 31.928699 23.827974 34.04435 23.827974 36.654251C 23.827974 39.264 25.943624 41.379501 28.5534 41.379501ZM 36.479 48.721748C 35.4445 45.332001 32.24015 42.790501 28.559349 42.790501C 24.87855 42.790501 21.674274 45.332001 20.63965 48.721748M 51.2145 41.379501C 53.824249 41.379501 55.939999 39.264 55.939999 36.654251C 55.939999 34.04435 53.824249 31.928699 51.2145 31.928699C 48.604752 31.928699 46.488998 34.04435 46.488998 36.654251C 46.488998 39.264 48.604752 41.379501 51.2145 41.379501ZM 59.140247 48.721748C 58.105503 45.332001 54.901253 42.790501 51.220497 42.790501C 47.539749 42.790501 44.335499 45.332001 43.300751 48.721748"></path></g></g></g><g id="g-root-appr_dgq1bt1c1q8lh-stroke" data-item-order="0" transform="translate(285, 321)"><g id="appr_dgq1bt1c1q8lh-stroke" fill="none" stroke-linecap="round" stroke-linejoin="round" stroke-miterlimit="4" stroke="#ffffff" stroke-width="2"><g><path d="M 51.049999 21.875C 48.736069 20.726978 46.281921 19.886518 43.750004 19.375L 43.75 13.75C 43.75 12.369288 42.630714 11.25 41.25 11.25L 38.75 11.25C 37.369286 11.25 36.25 12.369288 36.25 13.75L 36.25 19.375C 33.718082 19.886518 31.263939 20.726978 28.950001 21.875002L 25 17.9C 24.024906 16.930691 22.450094 16.930691 21.475 17.9L 17.9 21.450001C 17.426718 21.919416 17.160505 22.558407 17.160505 23.225C 17.160505 23.891594 17.426718 24.530584 17.9 25L 21.875 28.950001C 20.726978 31.263939 19.886518 33.718082 19.375 36.250004L 13.75 36.25C 12.369288 36.25 11.25 37.369286 11.25 38.75L 11.25 41.25C 11.25 42.630714 12.369288 43.75 13.75 43.75L 19.375 43.75C 19.886518 46.281921 20.726978 48.736069 21.875002 51.050003L 17.9 55C 16.930691 55.975094 16.930691 57.549904 17.9 58.525002L 21.425001 62.075001C 21.894417 62.548279 22.533405 62.814499 23.200001 62.814499C 23.866594 62.814499 24.505583 62.548279 24.974998 62.075001L 28.950001 58.099998C 31.263939 59.248024 33.718082 60.088486 36.250004 60.600006L 36.25 66.25C 36.25 67.630707 37.369286 68.75 38.75 68.75L 41.25 68.75C 42.630714 68.75 43.75 67.630707 43.75 66.25L 43.75 60.625C 46.281921 60.113487 48.736069 59.273026 51.050003 58.125004L 55 62.099998C 55.975094 63.069309 57.549904 63.069309 58.525002 62.099998L 62.075001 58.549999C 63.044312 57.574905 63.044312 56.000095 62.075001 55.025002L 58.099998 51.049999C 59.248024 48.736069 60.088486 46.281921 60.600006 43.750004L 66.25 43.75C 67.630707 43.75 68.75 42.630714 68.75 41.25L 68.75 38.75C 68.75 37.369286 67.630707 36.25 66.25 36.25L 60.625 36.25C 60.324997 35 59.924999 33.375 59.400002 31.875M 68.75 11.25L 41.849998 44C 41.410339 44.589104 40.733692 44.954857 40 45C 39.268517 45.019981 38.565002 44.718472 38.074997 44.174999L 30 35"></path></g></g></g><g id="g-root-chec_zs6ypl1c1c4qv-stroke" data-item-order="0" transform="translate(453, 321)"><g id="chec_zs6ypl1c1c4qv-stroke" fill="none" stroke-linecap="round" stroke-linejoin="round" stroke-miterlimit="4" stroke="#ffffff" stroke-width="2"><g><path d="M 50.714283 16.428572L 57.142857 16.428572C 59.509792 16.428572 61.42857 18.347351 61.42857 20.714285L 61.42857 63.571426C 61.42857 65.938362 59.509792 67.85714 57.142857 67.85714L 22.857143 67.85714C 20.490208 67.85714 18.571428 65.938362 18.571428 63.571426L 18.571428 20.714285C 18.571428 18.347351 20.490208 16.428572 22.857143 16.428572L 29.285713 16.428572M 33.571426 12.142857L 46.42857 12.142857C 46.42857 12.142857 50.714283 12.142857 50.714283 16.428572L 50.714283 18.571428C 50.714283 18.571428 50.714283 22.857143 46.42857 22.857143L 33.571426 22.857143C 33.571426 22.857143 29.285713 22.857143 29.285713 18.571428L 29.285713 16.428572C 29.285713 16.428572 29.285713 12.142857 33.571426 12.142857M 29.285713 46.42857L 37.857143 52.85714L 48.571426 35.714287"></path></g></g></g><g id="g-root-tx__uz3t1cbacy4-stroke" data-item-order="0" transform="translate(249, 507)"></g><g id="g-root-tx__1hbbho91cbabyd-stroke" data-item-order="0" transform="translate(207, 543)"></g></g></g></svg>