<?xml version="1.0" encoding="utf-8" standalone="yes"?>
<!DOCTYPE svg PUBLIC "-//W3C//DTD SVG 1.1//EN" "http://www.w3.org/Graphics/SVG/1.1/DTD/svg11.dtd">
<svg width="652" height="448" viewBox="0 0 652 448" style="fill:none;stroke:none;fill-rule:evenodd;clip-rule:evenodd;stroke-linecap:round;stroke-linejoin:round;stroke-miterlimit:1.5;" version="1.1" xmlns="http://www.w3.org/2000/svg" xmlns:xlink="http://www.w3.org/1999/xlink"><style class="text-font-style fontImports" data-font-family="Shantell Sans">@import url('https://fonts.googleapis.com/css2?family=Shantell+Sans:wght@300..800&amp;display=block');</style><g id="items" style="isolation: isolate"><g id="blend" style="mix-blend-mode: normal"><g id="g-root-1.bubble-1_fr_m8maav121uzv1-fill" data-item-order="-215990" transform="translate(28, 112)"><g id="1.bubble-1_fr_m8maav121uzv1-fill" stroke="none" fill="#fff8b6"><g><path d="M 243.2 21.3L 244 12.1L 224.5 6.3L 223.3 19.5ZM 224.5 6.3L 212.2 29.5L 236.5 26.4L 244 12.1ZM 236.5 26.4L 214.9 2.9L 195.4 11.3L 212.2 29.5ZM 195.4 11.3L 197.7 48.7L 217.3 41L 214.9 2.9ZM 217.3 41L 187.7 5.1L 169.7 14.6L 197.7 48.7ZM 169.7 14.6L 188.3 77.4L 206.1 67.2L 187.7 5.1ZM 206.1 67.2L 151.6 8.8L 135.7 21.1L 188.3 77.4ZM 135.7 21.1L 187.4 102.8L 203.3 90.5L 151.6 8.8ZM 203.3 90.5L 129.3 11L 113.3 23.2L 187.4 102.8ZM 113.3 23.2L 186.7 141.1L 202.7 129L 129.3 11ZM 202.7 129L 106.2 23.4L 90.6 36L 186.7 141.1ZM 90.6 36L 187.4 170.9L 203.2 158.6L 106.2 23.4ZM 203.2 158.6L 87.2 21.9L 71.5 34.4L 187.4 170.9ZM 71.5 34.4L 195 199L 210.2 186L 87.2 21.9ZM 210.2 186L 60.4 31.6L 45.2 44.7L 195 199ZM 45.2 44.7L 188.6 233.5L 204.1 220.8L 60.4 31.6ZM 204.1 220.8L 37.2 34.8L 21.9 47.7L 188.6 233.5ZM 21.9 47.7L 172.5 238.1L 187.5 224.8L 37.2 34.8ZM 187.5 224.8L 19 54.5L 3.9 67.7L 172.5 238.1ZM 3.9 67.7L 144 250.5L 159.4 237.7L 19 54.5ZM 159.4 237.7L 18.4 82.4L 3 95.3L 144 250.5ZM 3 95.3L 126.6 257L 141.9 244.1L 18.4 82.4ZM 141.9 244.1L 18.1 111.8L 2.9 124.8L 126.6 257ZM 2.9 124.8L 108.3 263L 123.4 249.8L 18.1 111.8ZM 123.4 249.8L 23.7 150.6L 7.5 162.7L 108.3 263ZM 7.5 162.7L 55.2 250.6L 71.6 239L 23.7 150.6ZM 71.6 239L 19.4 181.1L 1 190.7L 55.2 250.6ZM 1 190.7L 10.7 232.6L 29.5 224.8L 19.4 181.1ZM 29.5 224.8L 21.5 212.2L 4.6 222.8L 10.7 232.6Z" fill-rule="nonzero"></path></g></g></g><g id="g-root-2.bubble-2_fr_8xs90n121uya7-fill" data-item-order="-215962" transform="translate(220, 112)"><g id="2.bubble-2_fr_8xs90n121uya7-fill" stroke="none" fill="#e9ffb9"><g><path d="M 61.3 2.6L 35.3 15.5L 41.3 34.9L 70.3 20.5ZM 41.3 34.9L 104.5 26L 97.6 6.8L 35.3 15.5ZM 97.6 6.8L 10 60.9L 19.3 78.7L 104.5 26ZM 19.3 78.7L 150.9 22.2L 141.8 4.4L 10 60.9ZM 141.8 4.4L 9.6 83.5L 18.9 101.3L 150.9 22.2ZM 18.9 101.3L 176.1 30.2L 166.7 12.5L 9.6 83.5ZM 166.7 12.5L 4 113.4L 13.6 130.9L 176.1 30.2ZM 13.6 130.9L 191.4 44.8L 181.7 27.3L 4 113.4ZM 181.7 27.3L 7.3 136.3L 16.8 154L 191.4 44.8ZM 16.8 154L 208.2 66.2L 199.1 48.4L 7.3 136.3ZM 199.1 48.4L 3.6 160.5L 12.7 178.3L 208.2 66.2ZM 12.7 178.3L 204.4 92.6L 195.3 74.8L 3.6 160.5ZM 195.3 74.8L 4.1 185.6L 13.1 203.5L 204.4 92.6ZM 13.1 203.5L 205.9 122.3L 197 104.4L 4.1 185.6ZM 197 104.4L 8.4 214.7L 17.6 232.5L 205.9 122.3ZM 17.6 232.5L 204.5 147.5L 195.3 129.7L 8.4 214.7ZM 195.3 129.7L 10.6 237L 19.8 254.8L 204.5 147.5ZM 19.8 254.8L 201.9 172.5L 192.6 154.7L 10.6 237ZM 192.6 154.7L 30.3 252.4L 39.8 270L 201.9 172.5ZM 39.8 270L 203.1 192.5L 193.2 175.1L 30.3 252.4ZM 193.2 175.1L 66.1 260.4L 75.6 278.1L 203.1 192.5ZM 75.6 278.1L 206.8 223.3L 197.7 205.4L 66.1 260.4ZM 197.7 205.4L 87.4 272.2L 96.1 290.3L 206.8 223.3ZM 96.1 290.3L 206.8 250.3L 198.3 232.1L 87.4 272.2ZM 198.3 232.1L 164.2 251.9L 174.3 269.2L 206.8 250.3Z" fill-rule="nonzero"></path></g></g></g><g id="g-root-3.bubble-3_fr_4hyqw7121uz2h-fill" data-item-order="-215934" transform="translate(367.00006103515625, 112)"><g id="3.bubble-3_fr_4hyqw7121uz2h-fill" stroke="none" fill="#c8ffe5"><g><path d="M 11.599939 6.2L 10.699939 7.8L 22.399939 26.9L 28.699939 16.7ZM 22.399939 26.9L 58.999939 23.8L 50.099939 4.5L 10.699939 7.8ZM 50.099939 4.5L 31.699939 22.5L 42.799939 39.6L 58.999939 23.8ZM 42.799939 39.6L 88.999939 21.6L 77.599939 4.6L 31.699939 22.5ZM 77.599939 4.6L 50.499939 33L 62.599939 49.2L 88.999939 21.6ZM 62.599939 49.2L 117.699939 20.5L 105.099939 4.5L 50.499939 33ZM 105.099939 4.5L 51.799939 65.5L 65.499939 80.3L 117.699939 20.5ZM 65.499939 80.3L 140.799939 24.8L 127.599939 9.7L 51.799939 65.5ZM 127.599939 9.7L 51.199939 87.9L 64.399939 102.9L 140.799939 24.8ZM 64.399939 102.9L 161.499939 30.2L 147.799939 15.5L 51.199939 87.9ZM 147.799939 15.5L 52.699939 125.3L 66.599939 139.8L 161.499939 30.2ZM 66.599939 139.8L 193.399939 38.4L 179.999939 23.5L 52.699939 125.3ZM 179.999939 23.5L 47.299939 156L 60.699939 170.9L 193.399939 38.4ZM 60.699939 170.9L 212.199939 47.9L 198.599939 33.1L 47.299939 156ZM 198.599939 33.1L 53.399939 183.9L 67.299939 198.3L 212.199939 47.9ZM 67.299939 198.3L 232.099939 50.3L 217.999939 36.1L 53.399939 183.9ZM 217.999939 36.1L 52.399939 219.2L 66.599939 233.4L 232.099939 50.3ZM 66.599939 233.4L 247.099939 71.4L 232.999939 57.2L 52.399939 219.2ZM 232.999939 57.2L 77.599939 226.3L 91.699939 240.5L 247.099939 71.4ZM 91.699939 240.5L 246.899939 100.3L 232.699939 86.2L 77.599939 226.3ZM 232.699939 86.2L 98.999939 238.7L 113.299939 252.8L 246.899939 100.3ZM 113.299939 252.8L 251.699939 128.8L 237.599939 114.5L 98.999939 238.7ZM 237.599939 114.5L 119.799939 243.6L 133.399939 258.4L 251.699939 128.8ZM 133.399939 258.4L 254.499939 164.8L 241.299939 149.7L 119.799939 243.6ZM 241.299939 149.7L 140.299939 249.8L 153.499939 264.8L 254.499939 164.8ZM 153.499939 264.8L 247.699939 191.3L 234.099939 176.5L 140.299939 249.8ZM 234.099939 176.5L 174.699939 240.9L 186.799939 257.3L 247.699939 191.3ZM 186.799939 257.3L 247.399939 228.9L 240.699939 209.9L 174.699939 240.9ZM 240.699939 209.9L 229.799939 212.5L 234.399939 232L 247.399939 228.9Z" fill-rule="nonzero"></path></g></g></g><g id="g-root-tx__258rr121uzur-fill" data-item-order="0" transform="translate(196, 40)"><g id="tx__258rr121uzur-fill" stroke="none" fill="#484848"><g><text style="font: bold 25px &quot;Shantell Sans&quot;, cursive; white-space: pre;" font-weight="bold" font-size="25px" font-family="'Shantell Sans', cursive"><tspan x="13.29" y="45" dominant-baseline="ideographic">週刊OSMの協力体制</tspan></text></g></g></g><g id="g-root-1_18gyr3b121uzno-fill" data-item-order="0" transform="translate(94, 172)"></g><g id="g-root-tran_qtfl47121z5se-fill" data-item-order="0" transform="translate(286, 172)"></g><g id="g-root-blin_zrkhpj1220mq6-fill" data-item-order="0" transform="translate(478, 172)"></g><g id="g-root-tx__1hdupif121z6ry-fill" data-item-order="0" transform="translate(88, 244)"><g id="tx__1hdupif121z6ry-fill" stroke="none" fill="#484848"><g><text style="font: bold 20px &quot;Shantell Sans&quot;, cursive; white-space: pre;" font-weight="bold" font-size="20px" font-family="'Shantell Sans', cursive"><tspan x="16" y="35" dominant-baseline="ideographic">編集者</tspan></text></g></g></g><g id="g-root-tx__14651nr1220kjk-fill" data-item-order="0" transform="translate(280, 244)"><g id="tx__14651nr1220kjk-fill" stroke="none" fill="#484848"><g><text style="font: bold 20px &quot;Shantell Sans&quot;, cursive; white-space: pre;" font-weight="bold" font-size="20px" font-family="'Shantell Sans', cursive"><tspan x="16" y="35" dominant-baseline="ideographic">翻訳者</tspan></text></g></g></g><g id="g-root-tx__4hc9t31222139-fill" data-item-order="0" transform="translate(442, 244)"><g id="tx__4hc9t31222139-fill" stroke="none" fill="#484848"><g><text style="font: bold 20px &quot;Shantell Sans&quot;, cursive; white-space: pre;" font-weight="bold" font-size="20px" font-family="'Shantell Sans', cursive"><tspan x="16" y="35" dominant-baseline="ideographic">ボランティア</tspan></text></g></g></g><g id="g-root-tx__mbqnqf121z7k8-fill" data-item-order="0" transform="translate(52, 280)"><g id="tx__mbqnqf121z7k8-fill" stroke="none" fill="#484848"><g><text style="font: 15px &quot;Shantell Sans&quot;, cursive; white-space: pre;" font-size="15px" font-family="'Shantell Sans', cursive"><tspan x="14.5" y="29" dominant-baseline="ideographic">多数の編集者が連携</tspan><tspan x="44.5" y="47" dominant-baseline="ideographic">している。</tspan></text></g></g></g><g id="g-root-tx__4o7hrb1220lca-fill" data-item-order="0" transform="translate(250, 280)"><g id="tx__4o7hrb1220lca-fill" stroke="none" fill="#484848"><g><text style="font: 15px &quot;Shantell Sans&quot;, cursive; white-space: pre;" font-size="15px" font-family="'Shantell Sans', cursive"><tspan x="12.72" y="29" dominant-baseline="ideographic">OSMBCで訳文を登</tspan><tspan x="31" y="47" dominant-baseline="ideographic">録、レビュー</tspan></text></g></g></g><g id="g-root-tx__1cw5s4n12220w7-fill" data-item-order="0" transform="translate(436, 280)"><g id="tx__1cw5s4n12220w7-fill" stroke="none" fill="#484848"><g><text style="font: 15px &quot;Shantell Sans&quot;, cursive; white-space: pre;" font-size="15px" font-family="'Shantell Sans', cursive"><tspan x="14.5" y="29" dominant-baseline="ideographic">数名のボランティア</tspan><tspan x="22" y="47" dominant-baseline="ideographic">が協力している。</tspan></text></g></g></g><g id="g-root-1.bubble-1_fr_m8maav121uzv1-stroke" data-item-order="-215990" transform="translate(28, 112)"><g id="1.bubble-1_fr_m8maav121uzv1-stroke" fill="none" stroke-linecap="round" stroke-linejoin="round" stroke-miterlimit="4" stroke="#484848" stroke-width="4"><g><path d="M 202 58C 202 54 203.5 49.7 202 46C 190.4 46.3 178.8 47.5 167.3 46C 154.9 44.3 142.3 46.4 129.8 46C 116.9 45.6 104 45.5 91.2 46C 76.5 46.5 61.7 46.4 47 46C 34.7 45.6 22.2 44.3 10 46C 9.5 50 11.1 54.2 10 58M 202 46C 217.1 34.1 232.4 22.5 247 10C 229.7 10.8 212.3 10.6 195 10C 178.3 9.4 161.6 8.6 145 10C 131.2 14 116.7 15.8 103.3 21.1C 89.4 26.6 73.9 26.9 60.2 32.6C 44.2 39.2 27 42.9 10 46M 202 214C 203.6 187.1 203.7 160 202 133.1C 200.4 108.1 200.4 83 202 58M 10 214C 9.2 200.4 9.2 186.8 10 173.2C 10.8 159.2 8.5 145 10 131C 11.2 119.4 9.1 107.5 10 95.9C 11 83.3 10.7 70.6 10 58M 202 214C 203 217.9 201.4 222.1 202 226C 186.9 232.9 171.1 237.8 155.5 243.4C 138.9 249.4 122.7 256.5 106 262C 94.7 258.3 83.1 254.7 72.4 249.4C 61.7 244.1 50.5 239.8 38.9 236.9C 29 234.3 19.5 230 10 226C 9.4 222.1 10 218 10 214"></path><path d="M 202 58L 202 46L 10.0001 46L 10 58M 202 46L 247 10L 145 10L 10 46M 202 213.999786L 202 58M 10 213.999786L 10 58M 202 214L 202 226L 106 262L 10 226L 10 214"></path></g></g></g><g id="g-root-2.bubble-2_fr_8xs90n121uya7-stroke" data-item-order="-215962" transform="translate(220, 112)"><g id="2.bubble-2_fr_8xs90n121uya7-stroke" fill="none" stroke-linecap="round" stroke-linejoin="round" stroke-miterlimit="4" stroke="#484848" stroke-width="4"><g><path d="M 202 58C 202.5 54 203 49.9 202 46C 186.6 46.5 171.1 46.4 155.6 46C 138.5 45.5 121.3 44.8 104.1 46C 89.8 47 75.4 46.3 61.1 46C 44.1 45.6 27 46.6 10 46C 10.1 50 9.6 54 10 58M 202 46C 187.5 33.4 171.3 22.8 157 10C 138.4 10.5 119.8 10.9 101.3 10C 85.9 9.3 70.4 9.4 55 10C 40.1 22.1 24.5 33.4 10 46M 202 214C 200.1 187.6 200.2 161 202 134.6C 203.7 109.2 202 83.5 202 58M 10 214C 10.8 196.1 11.6 178.2 10 160.4C 8.5 144.3 9.6 128 10 111.8C 10.4 93.9 9.9 75.9 10 58M 202 214C 202.5 226 201.9 238 202 250C 186.4 256.6 169.7 260.9 154.2 267.9C 138.6 275 122.1 280 106 286C 74 274.1 41.6 263.1 10 250C 10.5 238 8.7 225.9 10 214"></path><path d="M 202 58L 202 46L 10.0001 46L 10 58M 202 46L 157 10L 55 10L 10 46M 202 213.999786L 202 58M 10 213.999786L 10 58M 202 214L 202 250L 106 286L 10 250L 10 214"></path></g></g></g><g id="g-root-3.bubble-3_fr_4hyqw7121uz2h-stroke" data-item-order="-215934" transform="translate(367.00006103515625, 112)"><g id="3.bubble-3_fr_4hyqw7121uz2h-stroke" fill="none" stroke-linecap="round" stroke-linejoin="round" stroke-miterlimit="4" stroke="#484848" stroke-width="4"><g><path d="M 246.999939 58C 248.099939 54.2 246.999939 50 246.999939 46C 224.799939 47.9 202.299939 45 179.999939 46C 157.499939 47 134.999939 47.3 112.499939 46C 93.399939 44.9 74.099939 48 54.999939 46C 55.699939 49.9 54.399939 54 54.999939 58M 246.999939 46C 230.799939 42.1 214.999939 36.6 198.699939 33.1C 185.499939 30.3 172.599939 26.3 159.599939 22.7C 143.799939 18.3 127.899939 14 111.999939 10C 93.799939 11.1 75.499939 11.1 57.399939 10C 41.599939 9 25.799939 10.3 9.999939 10C 24.999939 21.9 39.699939 34.4 54.999939 46M 246.999939 214C 247.799939 188.6 246.999939 163.2 246.999939 137.9C 246.999939 111.2 246.099939 84.6 246.999939 58M 54.999939 214C 55.599939 201.1 56.799939 188.1 54.999939 175.3C 53.299939 163.7 53.899939 151.8 54.999939 140.1C 56.299939 126.2 56.499939 112.2 54.999939 98.4C 53.499939 85 54.599939 71.5 54.999939 58M 246.999939 214C 245.899939 217.9 245.499939 222.3 246.999939 226C 230.799939 230.2 214.799939 236 199.899939 243.7C 184.399939 251.6 167.399939 256.2 150.999939 262C 119.699939 248.4 86.899939 238.2 54.999939 226C 54.199939 222.1 54.399939 217.9 54.999939 214"></path><path d="M 246.999939 58L 246.999939 46L 55.000039 46L 54.999939 58M 246.999985 46L 111.999885 10L 9.999985 10L 54.999985 46M 246.999939 213.999786L 246.999939 58M 54.999939 213.999786L 54.999939 58M 246.999939 214L 246.999939 226L 150.999939 262L 54.999939 226L 54.999939 214"></path></g></g></g><g id="g-root-tx__258rr121uzur-stroke" data-item-order="0" transform="translate(196, 40)"></g><g id="g-root-1_18gyr3b121uzno-stroke" data-item-order="0" transform="translate(94, 172)"><g id="1_18gyr3b121uzno-stroke" fill="none" stroke-linecap="round" stroke-linejoin="round" stroke-miterlimit="4" stroke="#484848" stroke-width="2"><g><path d="M 10 10M 49.25 66C 46.5 67 43.5 67.5 40.75 68.5C 40.5 68.5 39.75 68.5 39.5 68C 39.5 67.75 39.25 67.25 39.25 66.75C 39 64 41.5 61.5 41.75 58.5C 46.25 51.5 53.25 46.5 59.5 40.75C 61 38.5 64.5 38.5 66.75 40.25C 67.75 41.25 68.25 42.75 68.75 44C 69 45.5 67.75 46.75 67 48C 63.75 55.75 56 61 49.25 66M 10 10M 57.25 42.75C 60 45.25 63 47.25 64.75 50.25M 10 10M 41.75 58.5C 43 61.75 46.5 63.75 49.25 66M 37.5 35.25C 40.5 35 43.5 34.75 46.25 33.25C 46.5 33.25 46.75 32.75 46.75 32.5C 46.75 32 46.75 31.5 46.5 31.5C 45 30.75 46 28.25 44.5 23.75C 41.75 15.25 37.5 10.5 32.5 11.5C 27.25 12.5 21.75 14.75 20.5 23.75C 19.75 28.5 19 30 18.25 31.5C 18.25 31.75 18 32.25 18 32.5C 18.25 32.75 18.25 33 18.75 33.25C 20.75 35.5 24.75 36.75 27.5 35.25M 48.5 42.75C 45 42.5 42.25 39.5 38.75 38.75C 38 38.5 37.5 37.75 37.5 37C 37.5 35.75 37.25 34.75 37.5 33.5C 37.5 33 37.75 32.5 38 32.25C 39.25 31 40.25 29.5 40 27.75C 40.25 26.25 40.5 24.25 40 22.75C 37.25 21.5 33.5 21.25 32.5 18.5C 30 20.25 28 23 25 22.75C 25.25 24.5 25.5 26.25 25 27.75C 25 29.5 25.5 31.25 26.75 32.25C 27.25 32.5 27.25 33 27.5 33.5C 27.5 34.75 27 35.75 27.5 37C 27.5 37.75 27 38.5 26.25 38.75C 19 39.25 13.5 42.75 13 45.5C 12.75 47.75 11.5 49.5 11.25 51.5C 21 53 31.25 52 41.25 51.5M 10 10M 49.157501 66.034996L 40.82 68.415001C 40.383617 68.539513 39.914028 68.41774 39.593143 68.096855C 39.272259 67.77597 39.15049 67.306381 39.275002 66.869995L 41.657501 58.535L 59.389999 40.802502C 61.32254 38.77673 64.468452 38.525959 66.697502 40.220001C 67.863098 41.166889 68.572762 42.563427 68.650444 44.063152C 68.728119 45.562874 68.166534 47.025257 67.105003 48.087502ZM 10 10M 57.355 42.837502L 64.854996 50.337502M 10 10M 41.657501 58.535L 49.157501 66.034996M 37.407501 35.232502C 40.46838 35.575184 43.557159 34.904205 46.200001 33.322502C 46.512497 33.133091 46.726467 32.816425 46.785606 32.455822C 46.844746 32.095222 46.74313 31.726801 46.5075 31.447502C 45.462502 30.197502 44.739998 28.557499 44.4175 23.82C 43.802498 14.73 37.6675 11.535 32.4175 11.535C 27.1675 11.535 21.022499 14.73 20.4175 23.82C 20.095001 28.57 19.372499 30.209999 18.327499 31.447502C 18.091871 31.726801 17.990257 32.095222 18.049395 32.455822C 18.108534 32.816425 18.322502 33.133091 18.635 33.322502C 21.278393 34.902813 24.366697 35.573689 27.4275 35.232502M 48.599998 42.782501C 45.383297 41.187679 42.061394 39.814484 38.657497 38.672501C 37.922657 38.409054 37.425808 37.720425 37.407501 36.939999L 37.407501 33.564999C 37.424446 33.040371 37.657955 32.5462 38.052498 32.200001C 39.341381 31.109726 40.030891 29.468651 39.907501 27.785L 39.907501 22.785C 36.968685 22.279221 34.308105 20.73786 32.407501 18.440001C 30.506895 20.73786 27.846317 22.279221 24.907501 22.785L 24.907499 27.785C 24.784719 29.46908 25.475193 31.110231 26.765001 32.200001C 27.158371 32.546829 27.390894 33.040825 27.407499 33.564999L 27.407499 36.939999C 27.389191 37.720425 26.892344 38.409054 26.157499 38.672501C 19.325001 41.202499 14.3075 43 13 45.615002C 12.085047 47.474766 11.493265 49.476677 11.25 51.535L 41.157501 51.535"></path></g></g></g><g id="g-root-tran_qtfl47121z5se-stroke" data-item-order="0" transform="translate(286, 172)"><g id="tran_qtfl47121z5se-stroke" fill="none" stroke-linecap="round" stroke-linejoin="round" stroke-miterlimit="4" stroke="#484848" stroke-width="2"><g><path d="M 28.75 38.75C 27 39 25.25 39.25 23.75 38.75C 21.75 41.75 18.75 43.75 16.25 46.25C 16.75 43.75 15.75 41.25 16.25 38.75C 15.5 39 14.5 38.75 13.75 38.75C 12.25 38.75 11.75 37.5 11.25 36.25C 8.75 29.25 11.75 21.25 11.25 13.75C 11.25 12.25 12.25 11.5 13.75 11.25C 23.75 10.25 34 9.5 43.75 11.25C 45 11.5 46.5 12.5 46.25 13.75C 44.5 21 46 28.75 46.25 36.25M 51.25 36.25C 56.25 36 61.25 36.5 66.25 36.25C 67.75 36.25 68.75 37.25 68.75 38.75C 69 45.5 69.5 52.25 68.75 58.75C 68.5 60 67.5 61.25 66.25 61.25C 65.5 61.25 64.5 61.25 63.75 61.25C 63.25 63.75 62.75 66.5 63.75 68.75C 61.5 66 59 63.25 56.25 61.25C 49.75 62.5 42.75 59.75 36.25 61.25C 35 61.5 34 60 33.75 58.75C 33 52 35.25 45.25 33.75 38.75C 33.5 37.5 35 36.75 36.25 36.25C 37 36 38 36.5 38.75 36.25M 23.75 31.25C 22.75 27.75 22.75 23.5 23.75 20C 24.25 18 25.5 16.5 27.5 16.25C 29.5 16 31.5 18 31.25 20C 30.5 23.75 29.75 27.75 31.25 31.25M 23.75 23.75C 26 23 28.75 23.25 31.25 23.75M 53.75 43.75C 54 43 53.5 42 53.75 41.25M 46.25 43.75C 51.25 44.75 56.25 44.75 61.25 43.75M 50 43.75C 48.75 49.25 55 52.75 60 55M 57.5 43.75C 56 49.25 52.25 52 47.5 55M 28.75 38.75L 23.75 38.75L 16.25 46.25L 16.25 38.75L 13.75 38.75C 12.369288 38.75 11.25 37.630714 11.25 36.25L 11.25 13.75C 11.25 12.369288 12.369288 11.25 13.75 11.25L 43.75 11.25C 45.130714 11.25 46.25 12.369288 46.25 13.75L 46.25 36.25M 51.25 36.25L 66.25 36.25C 67.630707 36.25 68.75 37.369286 68.75 38.75L 68.75 58.75C 68.75 60.130711 67.630707 61.25 66.25 61.25L 63.75 61.25L 63.75 68.75L 56.25 61.25L 36.25 61.25C 34.869286 61.25 33.75 60.130711 33.75 58.75L 33.75 38.75C 33.75 37.369286 34.869286 36.25 36.25 36.25L 38.75 36.25M 23.75 31.25L 23.75 20C 23.75 17.928932 25.428932 16.25 27.5 16.25C 29.571068 16.25 31.25 17.928932 31.25 20L 31.25 31.25M 23.75 23.75L 31.25 23.75M 53.75 43.75L 53.75 41.25M 46.25 43.75L 61.25 43.75M 50 43.75C 50.33654 49.358868 54.469269 54.008186 60 55M 57.5 43.75C 57.16346 49.358868 53.030731 54.008186 47.5 55"></path></g></g></g><g id="g-root-blin_zrkhpj1220mq6-stroke" data-item-order="0" transform="translate(478, 172)"><g id="blin_zrkhpj1220mq6-stroke" fill="none" stroke-linecap="round" stroke-linejoin="round" stroke-miterlimit="4" stroke="#484848" stroke-width="2"><g><path d="M 39.75 46C 40.5 45.25 41 44.25 41.5 43.5C 41.5 41 41.5 38.5 41.5 36C 40.25 35.75 39.25 36 38.25 36C 37.75 36 37.25 36.25 37 36.25C 36.5 37 36.25 38.25 36.5 39.25C 37 40.75 35 41.75 33.5 42.25C 31.75 43 29.75 41 30.25 39.25C 31 36.5 30.5 27.25 38.25 29.5C 39.5 30 41 30 42.5 29.5C 45.5 28.75 48.5 30.75 51 32.25C 54 34.25 56.5 36 59.25 38.25C 60.75 39.25 61.25 41.5 60 42.5C 58.5 43.75 56.75 44.5 55.5 43.25C 53.25 41.25 50 40.25 47.75 37.75C 47.5 39.75 47.5 41.5 47.75 43.5C 50.5 47.25 52.25 51.75 55.25 55.5C 56.5 56.75 56 59.25 54.25 59.75C 52.5 60.5 50.25 60.5 49.75 58.75C 49 55.5 45.25 53.5 44.5 50.25C 43.25 53.5 40 55.5 39.25 58.75C 39 60.5 36.5 60.5 35 59.75M 38.25 18.5C 37.75 22 41 24 44.5 24.75C 48 25.5 51.75 21.75 51 18.5C 50.25 15 48 12.75 44.5 12C 41 11.25 38 14.75 38.25 18.5M 60.5 44.25C 62.5 49.5 65.5 54 68.5 58.75M 24 49.5C 20 52.25 18.5 51.25 18.75 49C 19 47.75 19.25 46.75 19.75 45.75C 20 44.75 20.75 43.75 21.75 44.25C 23 44.5 24.25 44.5 25.5 44.25C 26.75 43.75 27.75 45.25 29 46C 29.5 46.25 29.5 47 30 47.5C 30.5 48.25 32 48 32.75 48.75C 33.5 49.5 33.75 50.25 33.75 51.25C 33.5 52 33.5 52.75 33.5 53.25C 33.25 54.25 32.5 55 31.5 55C 30.25 55 29 55 27.75 55C 26.75 59.25 27.25 63.75 27.75 68M 22.25 61.5C 22 62.75 22 64.25 22.25 65.5C 22.75 66.75 21.25 68 19.75 68C 17.75 68 15.75 68 13.5 68C 12.5 68 11.5 67 11.5 65.75C 11.5 65 11.5 64.5 11.5 63.75C 11.5 61 13.5 59.5 15.75 58.25C 16 55.5 17.5 52.75 19 50.75M 39.799999 45.9375L 41.384998 43.4025L 41.384998 35.962502L 38.189999 35.962502C 37.742447 35.923687 37.29203 35.990479 36.875 36.157501C 36.613754 37.13467 36.518261 38.148739 36.592499 39.157501C 36.592445 40.923393 35.160892 42.354904 33.395 42.354904C 31.629108 42.354904 30.197556 40.923393 30.197502 39.157501C 30.197502 36.287502 30.197502 29.567501 38.197502 29.567501L 42.412498 29.567501C 45.534084 29.567158 48.577694 30.54265 51.1175 32.357498L 59.232502 38.1525C 60.671066 39.18301 61.001606 41.184719 59.970707 42.623009C 58.939812 44.061295 56.938011 44.391293 55.5 43.360001L 47.767502 37.837502L 47.767502 43.4025L 55.267502 55.402496C 56.202934 56.899193 55.747944 58.870819 54.251251 59.806252C 52.754559 60.741688 50.782932 60.286694 49.847504 58.790001L 44.567497 50.342499L 39.299999 58.794998C 38.365292 60.29174 36.39418 60.747299 34.897499 59.8125M 38.189999 18.3825C 38.1898 21.913122 41.051876 24.775362 44.582497 24.775362C 48.113121 24.775362 50.975197 21.913122 50.974998 18.3825C 50.975197 14.851878 48.113121 11.989637 44.582497 11.989637C 41.051876 11.989637 38.1898 14.851878 38.189999 18.3825M 60.560001 44.317501L 68.552498 58.699997M 23.915001 49.537498C 21.3925 53.537502 18.094999 51.262497 18.752501 48.962502L 19.682499 45.712502C 19.948345 44.780106 20.800449 44.137199 21.769999 44.137501L 25.405001 44.137501C 26.856932 44.138012 28.212543 44.864132 29.0175 46.072498L 29.9 47.395L 32.682499 48.787502C 33.592678 49.242176 34.065403 50.267616 33.820004 51.255001L 33.57 53.347504C 33.328003 54.314342 32.459167 54.992508 31.4625 54.992504L 27.73 54.9925L 27.73 68M 22.3225 61.5L 22.3225 65.5C 22.3225 66.880714 21.203211 68 19.8225 68L 13.62 68C 12.420161 68 11.4475 67.027344 11.4475 65.827499L 11.4475 63.657497C 11.536797 61.091873 13.304151 58.891071 15.79 58.25L 19.039999 50.6525"></path></g></g></g><g id="g-root-tx__1hdupif121z6ry-stroke" data-item-order="0" transform="translate(88, 244)"></g><g id="g-root-tx__14651nr1220kjk-stroke" data-item-order="0" transform="translate(280, 244)"></g><g id="g-root-tx__4hc9t31222139-stroke" data-item-order="0" transform="translate(442, 244)"></g><g id="g-root-tx__mbqnqf121z7k8-stroke" data-item-order="0" transform="translate(52, 280)"></g><g id="g-root-tx__4o7hrb1220lca-stroke" data-item-order="0" transform="translate(250, 280)"></g><g id="g-root-tx__1cw5s4n12220w7-stroke" data-item-order="0" transform="translate(436, 280)"></g></g></g></svg>