<?xml version="1.0" encoding="utf-8" standalone="yes"?>
<!DOCTYPE svg PUBLIC "-//W3C//DTD SVG 1.1//EN" "http://www.w3.org/Graphics/SVG/1.1/DTD/svg11.dtd">
<svg width="853" height="488" viewBox="0 0 853 488" style="fill:none;stroke:none;fill-rule:evenodd;clip-rule:evenodd;stroke-linecap:round;stroke-linejoin:round;stroke-miterlimit:1.5;" version="1.1" xmlns="http://www.w3.org/2000/svg" xmlns:xlink="http://www.w3.org/1999/xlink"><style class="text-font-style fontImports" data-font-family="Roboto">@import url('https://fonts.googleapis.com/css2?family=Roboto:wght@400;700&amp;display=block');</style><g id="items" style="isolation: isolate"><g id="blend" style="mix-blend-mode: normal"><g id="g-root--1.cu_sy_1hclo6u14067f3-fill" data-item-order="-283416" transform="translate(160, 231)"><g id="-1.cu_sy_1hclo6u14067f3-fill" stroke="none" fill="url(#gradient-cbcbcb-248399021)"><g><path d="M 100 10L 16 10L 10 82L 106 82L 100 10Z"></path></g></g></g><g id="g-root--1.cu_1_sy_1cws62e140687c-fill" data-item-order="-283412" transform="translate(154.46234130859375, 303)"><g id="-1.cu_1_sy_1cws62e140687c-fill" stroke="none" fill="url(#gradient-fe8884-413551779)"><g><path d="M 111.539 10L 117.539 82L 15.5377 82L 10 76.4623L 15.5385 10.000008L 111.539 10Z"></path></g></g></g><g id="g-root--1.cu_2_sy_18hl51214065tt-fill" data-item-order="-283408" transform="translate(171.9998779296875, 87)"><g id="-1.cu_2_sy_18hl51214065tt-fill" stroke="none" fill="url(#gradient-ffed4b-499785973)"><g><path d="M 82 100.00042L 82 52.000527L 634 10L 634 141.999992L 82 100.00042ZM 10 40.000031L 82 40.000031L 82 112.000031L 10 112.000031L 10 40.000031Z"></path></g></g></g><g id="g-root--1.cu_3_sy_zly4s614066mi-fill" data-item-order="-283404" transform="translate(172, 189)"><g id="-1.cu_3_sy_zly4s614066mi-fill" stroke="none" fill="url(#gradient-cbcbcb-248399021)"><g><path d="M 10 10L 82 10L 82 28L 10 28L 10 10Z"></path></g></g></g><g id="g-root--1.cu_4_sy_v64mnq14067er-fill" data-item-order="-283401" transform="translate(160, 75)"></g><g id="g-root--1.cu_5_sy_mahmeu140687g-fill" data-item-order="-283400" transform="translate(154, 93)"><g id="-1.cu_5_sy_mahmeu140687g-fill" stroke="none" fill="url(#gradient-fe8884-413551779)"><g><path d="M 16 34L 112 34L 64 10L 16 34ZM 16 136L 112 136L 106 148L 22 148L 16 136ZM 10 124L 118 124L 118 136L 10 136L 10 124Z"></path></g></g></g><g id="g-root--1.cu_6_sy_8znl4m14066ml-fill" data-item-order="-283398" transform="translate(40.8271484375, 363)"><defs><linearGradient id="gradient-cbcbcb-248399021" x2="0" y2="1"><stop offset="0" stop-color="#d9d9d9"></stop><stop offset="1" stop-color="#bcbcbc"></stop></linearGradient><linearGradient id="gradient-fe8884-413551779" x2="0" y2="1"><stop offset="0" stop-color="#ffa6a3"></stop><stop offset="1" stop-color="#fd6a65"></stop></linearGradient><linearGradient id="gradient-ffed4b-499785973" x2="0" y2="1"><stop offset="0" stop-color="#fff282"></stop><stop offset="1" stop-color="#ffe714"></stop></linearGradient></defs><g id="-1.cu_6_sy_8znl4m14066ml-fill" stroke="none" fill="url(#gradient-cbcbcb-248399021)"><g><path d="M 45.173 46L 81.673 10L 117.173 10L 129.173 22L 297.173 22L 309.173 34L 333.173 34L 357.173 58L 411.917 58L 423.928 70C 423.58 70.4243 423.202 70.8141 422.795 71.1925C 419.784 73.9903 415.392 75.3778 411.009 75.3778C 406.627 75.3778 402.235 73.9789 399.224 71.1925C 398.826 70.8141 398.448 70.4243 398.101 70C 397.753 70.4243 397.375 70.8141 396.968 71.1925C 393.957 73.9903 389.555 75.3778 385.182 75.3778C 380.81 75.3778 376.408 73.9789 373.397 71.1925C 372.999 70.8141 372.621 70.4243 372.264 70C 371.916 70.4243 371.538 70.8141 371.141 71.1925C 368.13 73.9903 363.728 75.3778 359.355 75.3778C 354.983 75.3778 350.581 73.9789 347.57 71.1925C 347.172 70.8141 346.794 70.4243 346.437 70C 346.089 70.4243 345.711 70.8141 345.314 71.1925C 342.303 73.9903 337.901 75.3778 333.528 75.3778C 329.156 75.3778 324.754 73.9789 321.743 71.1925C 321.345 70.8141 320.967 70.4243 320.61 70C 320.262 70.4243 319.884 70.8141 319.487 71.1925C 316.476 73.9903 312.074 75.3778 307.701 75.3778C 303.329 75.3778 298.927 73.9789 295.916 71.1925C 295.518 70.8141 295.14 70.4243 294.783 70C 294.435 70.4243 294.057 70.8141 293.66 71.1925C 290.649 73.9903 286.247 75.3778 281.874 75.3778C 277.502 75.3778 273.1 73.9789 270.089 71.1925C 269.691 70.8141 269.313 70.4243 268.956 70C 268.608 70.4243 268.23 70.8141 267.823 71.1925C 264.812 73.9903 260.41 75.3778 256.037 75.3778C 251.665 75.3778 247.263 73.9789 244.252 71.1925C 243.854 70.8141 243.477 70.4243 243.119 70C 242.771 70.4243 242.393 70.8141 241.986 71.1925C 238.975 73.9903 234.189 75.3862 229.816 75.3862C 225.434 75.3862 220.911 73.9789 217.9 71.1925C 217.502 70.8141 217.124 70.4243 216.767 70C 216.419 70.4243 216.041 70.8141 215.634 71.1925C 212.623 73.9903 208.221 75.3778 203.848 75.3778C 199.476 75.3778 195.074 73.9789 192.063 71.1925C 191.665 70.8141 191.287 70.4243 190.94 70C 190.592 70.4243 190.214 70.8141 189.807 71.1925C 186.796 73.9903 182.404 75.3778 178.021 75.3778C 173.639 75.3778 169.247 73.9789 166.236 71.1925C 165.838 70.8141 165.46 70.4243 165.113 70C 164.765 70.4243 164.387 70.8141 163.98 71.1925C 160.969 73.9903 156.567 75.3778 152.194 75.3778C 147.822 75.3778 143.42 73.9789 140.409 71.1925C 140.011 70.8141 139.633 70.4243 139.276 70C 138.928 70.4243 138.55 70.8141 138.153 71.1925C 135.142 73.9903 130.74 75.3778 126.367 75.3778C 121.995 75.3778 117.593 73.9789 114.582 71.1925C 114.184 70.8141 113.806 70.4243 113.449 70C 113.101 70.4243 112.723 70.8141 112.326 71.1925C 109.3148 73.9903 104.9126 75.3778 100.5402 75.3778C 96.1678 75.3778 91.7656 73.9789 88.7546 71.1925C 88.3571 70.8141 87.9795 70.4243 87.6217 70C 87.2739 70.4243 86.8963 70.8141 86.4988 71.1925C 83.4878 73.9903 79.0856 75.3778 74.7132 75.3778C 70.3408 75.3778 65.9386 73.9789 62.9276 71.1925C 62.5301 70.8141 62.1525 70.4243 61.7947 70C 61.4469 70.4243 61.0693 70.8141 60.6718 71.1925C 57.6608 73.9903 53.2586 75.3778 48.8862 75.3778C 44.5138 75.3778 40.1116 73.9789 37.1006 71.1925C 36.7031 70.8141 36.3255 70.4243 35.9677 70C 35.6199 70.4243 35.2423 70.8141 34.8349 71.1925C 31.8239 73.9903 27.4217 75.3778 23.0493 75.3778C 18.6669 75.3778 14.1438 73.9789 11.1328 71.1925C 10.7354 70.8141 10.3577 70.4243 10 70L 33.173 46L 45.173 46Z"></path></g></g></g><g id="g-root--1.cu_7_sy_8znl4m14066mm-fill" data-item-order="-283395" transform="translate(15, 423)"></g><g id="g-root-tx__1ur5bqu149vz7p-fill" data-item-order="0" transform="translate(296.9999694824219, 27)"><g id="tx__1ur5bqu149vz7p-fill" stroke="none" fill="#484848"><g><text style="font: bold 25px &quot;Roboto&quot;, sans-serif; white-space: pre;" font-weight="bold" font-size="25px" font-family="'Roboto', sans-serif"><tspan x="17.5" y="44.5" dominant-baseline="ideographic">効率的な翻訳の達成</tspan></text></g></g></g><g id="g-root-sofa_1luvueu149nj7p-fill" data-item-order="0" transform="translate(183, 128.7939453125)"></g><g id="g-root-tx_markdown_zntk1i14065mx-fill" data-item-order="0" transform="translate(339, 141)"><g id="tx_markdown_zntk1i14065mx-fill" stroke="none" fill="#484848"><g><text style="font: 20px &quot;Roboto&quot;, sans-serif; white-space: pre;" font-size="20px" font-family="'Roboto', sans-serif"><tspan x="12" y="35" dominant-baseline="ideographic">Markdown翻訳</tspan></text></g></g></g><g id="g-root-2_1q8v8om13zz4e9-fill" data-item-order="0" transform="translate(183, 242.7939453125)"></g><g id="g-root-tx__1lualkm14066f4-fill" data-item-order="0" transform="translate(339, 255)"><g id="tx__1lualkm14066f4-fill" stroke="none" fill="#484848"><g><text style="font: 20px &quot;Roboto&quot;, sans-serif; white-space: pre;" font-size="20px" font-family="'Roboto', sans-serif"><tspan x="12" y="35" dominant-baseline="ideographic">プロジェクトの公開</tspan></text></g></g></g><g id="g-root-sear_hwjjjq1406802-fill" data-item-order="0" transform="translate(183, 314.7939453125)"></g><g id="g-root-tx__4ju30614067ev-fill" data-item-order="0" transform="translate(339, 327)"><g id="tx__4ju30614067ev-fill" stroke="none" fill="#484848"><g><text style="font: 20px &quot;Roboto&quot;, sans-serif; white-space: pre;" font-size="20px" font-family="'Roboto', sans-serif"><tspan x="12" y="35" dominant-baseline="ideographic">用語集の活用</tspan></text></g></g></g><g id="g-root--1.cu_sy_1hclo6u14067f3-stroke" data-item-order="-283416" transform="translate(160, 231)"><g id="-1.cu_sy_1hclo6u14067f3-stroke" fill="none" stroke-linecap="round" stroke-linejoin="round" stroke-miterlimit="4" stroke="#484848" stroke-width="2"><g><path d="M 16 10L 100 10L 106 82L 10 82L 16 10Z"></path></g></g></g><g id="g-root--1.cu_1_sy_1cws62e140687c-stroke" data-item-order="-283412" transform="translate(154.46234130859375, 303)"><g id="-1.cu_1_sy_1cws62e140687c-stroke" fill="none" stroke-linecap="round" stroke-linejoin="round" stroke-miterlimit="4" stroke="#484848" stroke-width="2"><g><path d="M 111.5385 10L 117.5385 82L 15.5377 82L 10 76.4623L 15.5385 10L 111.5385 10Z"></path></g></g></g><g id="g-root--1.cu_2_sy_18hl51214065tt-stroke" data-item-order="-283408" transform="translate(171.9998779296875, 87)"><g id="-1.cu_2_sy_18hl51214065tt-stroke" fill="none" stroke-linecap="round" stroke-linejoin="round" stroke-miterlimit="4" stroke="#484848" stroke-width="2"><g><path d="M 82 100.00042L 82 52.000527L 634 10L 634 141.999992L 82 100.00042ZM 10 40.000031L 82 40.000031L 82 112.000031L 10 112.000031L 10 40.000031Z"></path></g></g></g><g id="g-root--1.cu_3_sy_zly4s614066mi-stroke" data-item-order="-283404" transform="translate(172, 189)"><g id="-1.cu_3_sy_zly4s614066mi-stroke" fill="none" stroke-linecap="round" stroke-linejoin="round" stroke-miterlimit="4" stroke="#484848" stroke-width="2"><g><path d="M 10 10L 82 10L 82 28L 10 28L 10 10Z"></path></g></g></g><g id="g-root--1.cu_4_sy_v64mnq14067er-stroke" data-item-order="-283401" transform="translate(160, 75)"><g id="-1.cu_4_sy_v64mnq14067er-stroke" fill="none" stroke-linecap="round" stroke-linejoin="round" stroke-miterlimit="4" stroke="#484848" stroke-width="2"><g><path d="M 106 142L 106 124L 10 124L 10 142M 46 124L 46 142M 22 124L 22 142M 70 124L 70 142M 94 124L 94 142M 58 10L 58 28"></path></g></g></g><g id="g-root--1.cu_5_sy_mahmeu140687g-stroke" data-item-order="-283400" transform="translate(154, 93)"><g id="-1.cu_5_sy_mahmeu140687g-stroke" fill="none" stroke-linecap="round" stroke-linejoin="round" stroke-miterlimit="4" stroke="#484848" stroke-width="2"><g><path d="M 16 34L 112 34L 64 10L 16 34ZM 16 136L 112 136L 106 148L 22 148L 16 136ZM 10 124L 118 124L 118 136L 10 136L 10 124Z"></path></g></g></g><g id="g-root--1.cu_6_sy_8znl4m14066ml-stroke" data-item-order="-283398" transform="translate(40.8271484375, 363)"><g id="-1.cu_6_sy_8znl4m14066ml-stroke" fill="none" stroke-linecap="round" stroke-linejoin="round" stroke-miterlimit="4" stroke="#484848" stroke-width="2"><g><path d="M 23.0493 75.3778C 27.4217 75.3778 31.8239 73.9903 34.8349 71.1925C 35.2423 70.8141 35.6199 70.4243 35.9677 70C 36.3255 70.4243 36.7031 70.8141 37.1006 71.1925C 40.1116 73.9789 44.5138 75.3778 48.8862 75.3778C 53.2586 75.3778 57.6608 73.9903 60.6718 71.1925C 61.0693 70.8141 61.4469 70.4243 61.7947 70C 62.1525 70.4243 62.5301 70.8141 62.9276 71.1925C 65.9386 73.9789 70.3408 75.3778 74.7132 75.3778C 79.0856 75.3778 83.4878 73.9903 86.4988 71.1925C 86.8963 70.8141 87.2739 70.4243 87.6217 70C 87.9795 70.4243 88.3571 70.8141 88.7546 71.1925C 91.7656 73.9789 96.1678 75.3778 100.5402 75.3778C 104.9126 75.3778 109.3148 73.9903 112.3258 71.1925C 112.7233 70.8141 113.1009 70.4243 113.4487 70C 113.8065 70.4243 114.1841 70.8141 114.5816 71.1925C 117.5926 73.9789 121.9948 75.3778 126.3672 75.3778C 130.7396 75.3778 135.1418 73.9903 138.1528 71.1925C 138.5503 70.8141 138.9279 70.4243 139.2757 70C 139.6335 70.4243 140.0111 70.8141 140.4086 71.1925C 143.4196 73.9789 147.8218 75.3778 152.1942 75.3778C 156.5666 75.3778 160.9688 73.9903 163.9798 71.1925C 164.3872 70.8141 164.7649 70.4243 165.1127 70C 165.4605 70.4243 165.8381 70.8141 166.2356 71.1925C 169.2466 73.9789 173.6388 75.3778 178.0212 75.3778C 182.4035 75.3778 186.7958 73.9903 189.8068 71.1925C 190.2143 70.8141 190.5919 70.4243 190.9397 70C 191.2875 70.4243 191.6651 70.8141 192.0626 71.1925C 195.0736 73.9789 199.4758 75.3778 203.8482 75.3778C 208.2206 75.3778 212.6228 73.9903 215.6338 71.1925C 216.0413 70.8141 216.4189 70.4243 216.7667 70C 217.1244 70.4243 217.502 70.8141 217.8995 71.1925C 220.9105 73.9789 225.4339 75.3862 229.8163 75.3862C 234.1887 75.3862 238.9749 73.9903 241.9859 71.1925C 242.3934 70.8141 242.771 70.4243 243.1188 70C 243.4765 70.4243 243.8541 70.8141 244.2516 71.1925C 247.2626 73.9789 251.6648 75.3778 256.0372 75.3778C 260.4096 75.3778 264.8119 73.9903 267.8229 71.1925C 268.2303 70.8141 268.6079 70.4243 268.9557 70C 269.3135 70.4243 269.6911 70.8141 270.0886 71.1925C 273.0995 73.9789 277.5018 75.3778 281.8742 75.3778C 286.2466 75.3778 290.6488 73.9903 293.6598 71.1925C 294.0573 70.8141 294.4349 70.4243 294.7827 70C 295.1404 70.4243 295.5181 70.8141 295.9156 71.1925C 298.9266 73.9789 303.3288 75.3778 307.7012 75.3778C 312.0736 75.3778 316.4758 73.9903 319.4868 71.1925C 319.8843 70.8141 320.2619 70.4243 320.6097 70C 320.9675 70.4243 321.3451 70.8141 321.7426 71.1925C 324.7536 73.9789 329.1558 75.3778 333.5282 75.3778C 337.9006 75.3778 342.3029 73.9903 345.3138 71.1925C 345.7113 70.8141 346.0889 70.4243 346.4367 70C 346.7945 70.4243 347.1721 70.8141 347.5696 71.1925C 350.5806 73.9789 354.9828 75.3778 359.3552 75.3778C 363.7276 75.3778 368.1298 73.9903 371.1408 71.1925C 371.5383 70.8141 371.9159 70.4243 372.2637 70C 372.6215 70.4243 372.9991 70.8141 373.3966 71.1925C 376.4076 73.9789 380.8098 75.3778 385.1822 75.3778C 389.5546 75.3778 393.9568 73.9903 396.9678 71.1925C 397.3752 70.8141 397.7529 70.4243 398.1006 70C 398.4485 70.4243 398.8261 70.8141 399.2236 71.1925C 402.2346 73.9789 406.6268 75.3778 411.0092 75.3778C 415.3915 75.3778 419.7839 73.9903 422.7949 71.1925C 423.2023 70.8141 423.5799 70.4243 423.9277 70L 411.9172 58L 357.173 58L 333.173 34L 309.173 34L 297.173 22L 129.173 22L 117.173 10L 81.673 10L 45.173 46L 33.173 46L 10 70C 10.3577 70.4243 10.7354 70.8141 11.1328 71.1925C 14.1438 73.9789 18.6669 75.3778 23.0493 75.3778ZM 23.0493 75.3778L 23.0492 75.3862M 129.15918 22.027344L 141.23978 34.107944L 153.17818 34.107944L 165.32958 46.259344M 45.448243 46.0463L 69.466843 46.0463L 81.263143 34.25M 165.672343 70.0005L 189.626543 46.0463L 213.589043 46.0463L 225.506343 57.9636M 309.536543 34.25L 297.740143 46.0463L 285.442843 46.0463L 273.525543 57.9636"></path></g></g></g><g id="g-root--1.cu_7_sy_8znl4m14066mm-stroke" data-item-order="-283395" transform="translate(15, 423)"><g id="-1.cu_7_sy_8znl4m14066mm-stroke" fill="none" stroke-linecap="round" stroke-linejoin="round" stroke-miterlimit="4" stroke="#484848" stroke-width="2"><g><path d="M 48.8763 15.3778C 53.2487 15.3778 57.6509 13.9903 60.6619 11.1925C 61.0693 10.8141 61.4469 10.4243 61.7948 10C 62.1525 10.4243 62.5301 10.8141 62.9276 11.1925C 65.9386 13.9789 70.3408 15.3778 74.7132 15.3778C 79.0856 15.3778 83.4878 13.9903 86.4988 11.1925C 86.8963 10.8141 87.274 10.4243 87.6218 10C 87.9795 10.4243 88.3571 10.8141 88.7546 11.1925C 91.7656 13.9789 96.1678 15.3778 100.5402 15.3778C 104.9126 15.3778 109.3148 13.9903 112.3259 11.1925C 112.7233 10.8141 113.101 10.4243 113.4488 10C 113.8065 10.4243 114.1841 10.8141 114.5816 11.1925C 117.5926 13.9789 121.9948 15.3778 126.3672 15.3778C 130.7396 15.3778 135.1419 13.9903 138.1528 11.1925C 138.5503 10.8141 138.9279 10.4243 139.2758 10C 139.6335 10.4243 140.0111 10.8141 140.4086 11.1925C 143.4196 13.9789 147.8218 15.3778 152.1942 15.3778C 156.5666 15.3778 160.9688 13.9903 163.9798 11.1925C 164.3773 10.8141 164.755 10.4243 165.1028 10C 165.4605 10.4243 165.8381 10.8141 166.2356 11.1925C 169.2466 13.9789 173.6488 15.3778 178.0212 15.3778C 182.3936 15.3778 186.7958 13.9903 189.8068 11.1925C 190.2143 10.8141 190.5919 10.4243 190.9397 10C 191.2875 10.4243 191.6651 10.8141 192.0626 11.1925C 195.0736 13.9789 199.4659 15.3778 203.8482 15.3778C 208.2305 15.3778 212.6229 13.9903 215.6339 11.1925C 216.0413 10.8141 216.4189 10.4243 216.7667 10C 217.1145 10.4243 217.4921 10.8141 217.8896 11.1925C 220.9006 13.9789 225.3028 15.3778 229.6752 15.3778C 234.0477 15.3778 238.4499 13.9903 241.4609 11.1925C 241.8683 10.8141 242.2459 10.4243 242.5937 10C 242.9515 10.4243 243.3291 10.8141 243.7266 11.1925C 246.7376 13.9789 251.2609 15.3862 255.6433 15.3862C 260.0157 15.3862 264.802 13.9903 267.813 11.1925C 268.2204 10.8141 268.598 10.4243 268.9458 10C 269.3035 10.4243 269.6812 10.8141 270.0786 11.1925C 273.0896 13.9789 277.4919 15.3778 281.8643 15.3778C 286.2367 15.3778 290.6389 13.9903 293.6499 11.1925C 294.0573 10.8141 294.4349 10.4243 294.7827 10C 295.1405 10.4243 295.5181 10.8141 295.9156 11.1925C 298.9266 13.9789 303.3288 15.3778 307.7012 15.3778C 312.0736 15.3778 316.4758 13.9903 319.4868 11.1925C 319.8843 10.8141 320.2619 10.4243 320.6097 10C 320.9675 10.4243 321.3451 10.8141 321.7426 11.1925C 324.7536 13.9789 329.1558 15.3778 333.5282 15.3778C 337.9006 15.3778 342.3029 13.9903 345.3138 11.1925C 345.7113 10.8141 346.089 10.4243 346.4368 10C 346.7945 10.4243 347.1721 10.8141 347.5696 11.1925C 350.5806 13.9789 354.9828 15.3778 359.3552 15.3778C 363.7276 15.3778 368.1299 13.9903 371.1409 11.1925C 371.5384 10.8141 371.916 10.4243 372.2638 10C 372.6215 10.4243 372.9991 10.8141 373.3966 11.1925C 376.4076 13.9789 380.8098 15.3778 385.1823 15.3778C 389.5547 15.3778 393.9568 13.9903 396.9678 11.1925C 397.3653 10.8141 397.743 10.4243 398.0908 10C 398.4485 10.4243 398.8261 10.8141 399.2236 11.1925C 402.2346 13.9789 406.6368 15.3778 411.0092 15.3778C 415.3816 15.3778 419.7838 13.9903 422.7948 11.1925C 423.2023 10.8141 423.5799 10.4243 423.9277 10C 424.2755 10.4243 424.6531 10.8141 425.0506 11.1925C 428.0616 13.9789 432.4539 15.3778 436.8362 15.3778C 441.2186 15.3778 445.6109 13.9903 448.6219 11.1925C 449.0293 10.8141 449.4069 10.4243 449.7547 10C 450.1025 10.4243 450.4801 10.8141 450.8776 11.1925C 453.8886 13.9789 458.2908 15.3778 462.6632 15.3778C 467.0356 15.3778 471.4379 13.9903 474.4489 11.1925C 474.8563 10.8141 475.2339 10.4243 475.5817 10C 475.9395 10.4243 476.317 10.8141 476.7145 11.1925C 479.7255 13.9789 484.2486 15.3862 488.6309 15.3862C 493.0033 15.3862 497.7894 13.9903 500.8004 11.1925C 501.2079 10.8141 501.5854 10.4243 501.9333 10C 502.291 10.4243 502.6686 10.8141 503.0661 11.1925C 506.0771 13.9789 510.4793 15.3778 514.8517 15.3778C 519.2241 15.3778 523.6263 13.9903 526.6373 11.1925C 527.0447 10.8141 527.4224 10.4243 527.7702 10C 528.1279 10.4243 528.5056 10.8141 528.9031 11.1925C 531.9141 13.9789 536.3163 15.3778 540.6887 15.3778C 545.061 15.3778 549.4633 13.9903 552.4743 11.1925C 552.8718 10.8141 553.2494 10.4243 553.5972 10C 553.955 10.4243 554.3325 10.8141 554.73 11.1925C 557.741 13.9789 562.1433 15.3778 566.5157 15.3778C 570.8881 15.3778 575.2903 13.9903 578.3013 11.1925C 578.6987 10.8141 579.0764 10.4243 579.4242 10C 579.7819 10.4243 580.1595 10.8141 580.5571 11.1925C 583.5681 13.9789 587.9702 15.3778 592.3427 15.3778C 596.7151 15.3778 601.1173 13.9903 604.1283 11.1925C 604.5258 10.8141 604.9034 10.4243 605.2512 10C 605.6089 10.4243 605.9866 10.8141 606.384 11.1925C 609.395 13.9789 613.7973 15.3778 618.1697 15.3778C 622.5421 15.3778 626.9443 13.9903 629.9553 11.1925C 630.3528 10.8141 630.7305 10.4243 631.0782 10C 631.436 10.4243 631.8136 10.8141 632.2111 11.1925C 635.222 13.9789 639.6243 15.3778 643.9967 15.3778C 648.3691 15.3778 652.7713 13.9903 655.7823 11.1925C 656.1897 10.8141 656.5674 10.4243 656.9152 10C 657.2629 10.4243 657.6406 10.8141 658.0381 11.1925C 661.0491 13.9789 665.4413 15.3778 669.8237 15.3778C 674.206 15.3778 678.5983 13.9903 681.6093 11.1925C 682.0167 10.8141 682.3944 10.4243 682.7422 10C 683.09 10.4243 683.4676 10.8141 683.8651 11.1925C 686.8761 13.9789 691.2784 15.3778 695.6508 15.3778C 700.0232 15.3778 704.4253 13.9903 707.4363 11.1925C 707.8438 10.8141 708.2214 10.4243 708.5692 10C 708.927 10.4243 709.3045 10.8141 709.702 11.1925C 712.713 13.9789 717.2361 15.3778 721.6185 15.3778M 48.8763 15.3778C 44.4939 15.3778 39.9709 13.9789 36.9599 11.1925C 36.5624 10.8141 36.1848 10.4243 35.827 10C 35.4792 10.4243 35.1016 10.8141 34.6942 11.1925C 31.6832 13.9903 27.281 15.3778 22.9086 15.3778C 18.5361 15.3778 14.1339 13.9789 11.1229 11.1925C 10.7254 10.8141 10.3478 10.4243 10 10M 48.8763 15.3778L 48.8762 15.3862M 812.0179 10C 811.6701 10.4243 811.2925 10.8141 810.895 11.1925C 807.884 13.9903 803.4818 15.3778 799.1094 15.3778C 794.737 15.3778 790.3348 13.9789 787.3238 11.1925C 786.9263 10.8141 786.5487 10.4243 786.191 10C 785.8432 10.4243 785.4655 10.8141 785.0681 11.1925C 782.0571 13.9903 777.6548 15.3778 773.2824 15.3778C 768.91 15.3778 764.5078 13.9789 761.4968 11.1925C 761.0993 10.8141 760.7217 10.4243 760.364 10C 760.0162 10.4243 759.6385 10.8141 759.241 11.1925C 756.23 13.9903 751.8278 15.3778 747.4554 15.3778C 743.083 15.3778 738.6808 13.9789 735.6698 11.1925C 735.2723 10.8141 734.8947 10.4243 734.5369 10C 734.1891 10.4243 733.8115 10.8141 733.4041 11.1925C 730.3931 13.9903 725.9909 15.3778 721.6185 15.3778M 721.6185 15.3778L 721.6184 15.3862"></path></g></g></g><g id="g-root-tx__1ur5bqu149vz7p-stroke" data-item-order="0" transform="translate(296.9999694824219, 27)"></g><g id="g-root-sofa_1luvueu149nj7p-stroke" data-item-order="0" transform="translate(183, 128.7939453125)"><g id="sofa_1luvueu149nj7p-stroke" fill="none" stroke-linecap="round" stroke-linejoin="round" stroke-miterlimit="4" stroke="#484848" stroke-width="2"><g><path d="M 29.3379 29.284401C 30.5378 28.684401 31.937799 28.48436 33.337799 28.884359C 36.737801 29.48436 39.337799 32.684402 39.337799 36.284401L 39.337799 42.0844C 39.337799 44.284401 37.5378 46.0844 35.337799 46.0844L 31.337799 46.0844L 27.13788 54.484402C 26.13788 56.484402 23.737881 57.0844 21.93788 55.884399C 20.337879 54.884399 19.937901 52.884399 20.7379 51.284401L 23.3379 46.0844M 10 10M 16.3379 46.084202L 13.7379 51.284199C 12.937901 52.884201 13.33788 54.884201 14.93788 55.884201C 16.737881 57.084202 19.13788 56.4842 20.13788 54.4842L 20.484379 53.937599M 31.337799 25.67626C 34.0994 25.67626 36.337799 23.4377 36.337799 20.67626C 36.337799 17.914841 34.0994 15.67626 31.337799 15.67626C 28.57646 15.67626 26.3379 17.914841 26.3379 20.67626C 26.3379 23.4377 28.57646 25.67626 31.337799 25.67626ZM 52.5 56.5L 36.5 56.5M 42.5 28.5L 46.5 28.5C 49.900002 28.5 52.5 31.1 52.5 34.5L 52.5 40.5M 56.5 56.5L 46.5 56.5L 46.5 44.5C 46.5 42.299999 48.299999 40.5 50.5 40.5L 52.5 40.5C 54.700001 40.5 56.5 42.299999 56.5 44.5L 56.5 56.5ZM 26.33832 39.884201L 14.93832 39.884201C 14.33832 39.884201 13.73832 39.4842 13.538321 38.884201L 11.53832 31.684401C 11.33832 30.684401 11.938314 29.884279 12.93832 29.884279L 22.538319 29.884279C 23.138321 29.884279 23.738319 30.284201 23.93832 30.884199L 26.33832 39.884201ZM 32.338402 39.884201L 26.338381 39.884201"></path></g></g></g><g id="g-root-tx_markdown_zntk1i14065mx-stroke" data-item-order="0" transform="translate(339, 141)"></g><g id="g-root-2_1q8v8om13zz4e9-stroke" data-item-order="0" transform="translate(183, 242.7939453125)"><g id="2_1q8v8om13zz4e9-stroke" fill="none" stroke-linecap="round" stroke-linejoin="round" stroke-miterlimit="4" stroke="#484848" stroke-width="2"><g><path d="M 29.39036 43.9702L 15.5903 43.9702C 14.7903 43.9702 14.19034 43.370201 13.99034 42.770199L 11.590306 34.1702C 11.190306 33.1702 12.19034 31.9702 13.19034 31.9702L 24.5903 31.9702C 25.390301 31.9702 25.990341 32.570198 26.19034 33.1702L 29.39036 43.9702ZM 34.389999 43.9702L 29.390141 43.9702M 42.145 27.300039C 45.458801 27.300039 48.145 24.61376 48.145 21.300041C 48.145 17.98634 45.458801 15.300039 42.145 15.300039C 38.831398 15.300039 36.145 17.98634 36.145 21.300041C 36.145 24.61376 38.831398 27.300039 42.145 27.300039ZM 34.145 34.299999C 35.945 31.9 38.945 30.299999 42.145 30.299999C 43.4902 30.299999 44.799801 30.5828 46 31.0888M 51.494202 45.1702C 54.2556 45.1702 56.494202 42.931599 56.494202 40.1702C 56.494202 37.408798 54.2556 35.1702 51.494202 35.1702C 48.7328 35.1702 46.494202 37.408798 46.494202 40.1702C 46.494202 42.931599 48.7328 45.1702 51.494202 45.1702ZM 56.109402 42.109402C 55.109402 46.909401 52.931 49.9702 48.931 52.570202C 45.131001 55.1702 40.131001 54.1702 39.331001 50.570202C 38.331001 46.9702 39.884399 42.909401 46.484402 40.109398"></path></g></g></g><g id="g-root-tx__1lualkm14066f4-stroke" data-item-order="0" transform="translate(339, 255)"></g><g id="g-root-sear_hwjjjq1406802-stroke" data-item-order="0" transform="translate(183, 314.7939453125)"><g id="sear_hwjjjq1406802-stroke" fill="none" stroke-linecap="round" stroke-linejoin="round" stroke-miterlimit="4" stroke="#484848" stroke-width="2"><g><path d="M 27 47.759998C 22.513447 46.091202 17.784643 45.165707 13 45.02C 11.895431 45.02 11 44.124569 11 43.02L 11 14C 11 12.895431 11.895431 12 13 12C 23.82 12.34 33 15.32 33 18.959999C 33 15.32 42.119999 12.34 53 12C 54.104568 12 55 12.895431 55 14L 55 28.98M 33 18.98L 33 24.98M 29 22.459999C 24.802313 21.038824 20.426722 20.210827 16 20M 29 28.52C 24.810371 27.059311 20.431957 26.210571 16 26M 26 33.5C 22.717789 32.704216 19.371244 32.202232 16 32M 24.66 39.18C 21.805859 38.576668 18.911514 38.182285 16 38M 42 21.02C 44.641495 20.505445 47.3139 20.164715 50 20M 29 40.02C 29.000002 47.199703 34.820297 53.02 42 53.02C 49.179703 53.02 55 47.199703 55 40.02C 55 32.840302 49.179703 27.02 42 27.02C 34.820297 27.02 29.000002 32.840302 29.000002 40.02M 50.700001 49.68L 57 55.98M 37 38L 37 35C 37 34.447716 37.447716 34 38 34L 46 34C 46.552284 34 47 34.447716 47 35L 47 38M 42 34.02L 42 46.02M 39 46.02L 45 46.02"></path></g></g></g><g id="g-root-tx__4ju30614067ev-stroke" data-item-order="0" transform="translate(339, 327)"></g></g></g></svg>