<?xml version="1.0" encoding="utf-8" standalone="yes"?>
<!DOCTYPE svg PUBLIC "-//W3C//DTD SVG 1.1//EN" "http://www.w3.org/Graphics/SVG/1.1/DTD/svg11.dtd">
<svg width="982" height="590" viewBox="0 0 982 590" style="fill:none;stroke:none;fill-rule:evenodd;clip-rule:evenodd;stroke-linecap:round;stroke-linejoin:round;stroke-miterlimit:1.5;" version="1.1" xmlns="http://www.w3.org/2000/svg" xmlns:xlink="http://www.w3.org/1999/xlink"><style class="text-font-style fontImports" data-font-family="Roboto">@import url('https://fonts.googleapis.com/css2?family=Roboto:wght@400;700&amp;display=block');</style><g id="items" style="isolation: isolate"><g id="blend" style="mix-blend-mode: normal"><g id="g-root--1.line_fr_dfgaqf16i162u-fill" data-item-order="-469683" transform="translate(146.5, 243)"></g><g id="g-root--1.line_1_fr_9099p316i13pc-fill" data-item-order="-469679" transform="translate(350.5, 243)"></g><g id="g-root--1.line_2_fr_9099p316i13pe-fill" data-item-order="-469675" transform="translate(554.5, 243)"></g><g id="g-root--1.line_3_fr_4m9g716i14i4-fill" data-item-order="-469671" transform="translate(758.5, 243)"></g><g id="g-root-1.g-1_1_fr_1upwtav16i153a-fill" data-item-order="-469668" transform="translate(85.00003051757812, 291)"><g id="1.g-1_1_fr_1upwtav16i153a-fill" stroke="none" fill="#4e88e7"><g><path d="M 149.501969 13.1012C 145.370969 8.9678 138.668969 8.966 134.535969 13.0974C 130.403969 17.2272 130.403969 23.923 134.535969 28.0529L 153.913969 47.4222L 99.582669 47.4222C 93.737969 47.4222 88.999969 52.1581 88.999969 58.0001C 88.999969 63.842 93.737969 68.5779 99.582669 68.5779L 153.913969 68.5779L 134.535969 87.9471C 130.403969 92.077 130.403969 98.7728 134.535969 102.9026C 138.668969 107.034 145.370969 107.0322 149.501969 102.8988L 186.903969 65.4758C 191.031969 61.3458 191.031969 54.6542 186.903969 50.5242L 149.501969 13.1012ZM 42.906869 51.2384L 49.668869 58.0003L 42.906869 64.7623C 41.974369 65.6948 41.974369 67.2067 42.906869 68.1392C 43.839669 69.072 45.352269 69.0716 46.284669 68.1383L 54.725969 59.6884C 55.657569 58.7558 55.657569 57.2449 54.725969 56.3123L 46.284669 47.8623C 45.352269 46.929 43.839669 46.9286 42.906869 47.8615C 41.974369 48.794 41.974369 50.3059 42.906869 51.2384ZM 26.803069 51.2384L 33.565069 58.0003L 26.803069 64.7623C 25.870569 65.6948 25.870569 67.2067 26.803069 68.1392C 27.735969 69.072 29.248469 69.0716 30.180869 68.1383L 38.622269 59.6884C 39.553869 58.7558 39.553869 57.2449 38.622269 56.3123L 30.180869 47.8623C 29.248469 46.929 27.735969 46.9286 26.803069 47.8615C 25.870569 48.794 25.870569 50.3059 26.803069 51.2384ZM 10.699369 51.2381L 17.461269 58.0001L 10.699369 64.7621C 9.766869 65.6946 9.766869 67.2064 10.699369 68.1389C 11.632169 69.0718 13.144769 69.0714 14.077069 68.1381L 22.518469 59.6881C 23.450069 58.7556 23.450069 57.2446 22.518469 56.3121L 14.077069 47.8621C 13.144769 46.9288 11.632169 46.9284 10.699369 47.8612C 9.766869 48.7937 9.766869 50.3056 10.699369 51.2381ZM 71.949869 68.5775C 66.107869 68.5775 61.372069 63.8417 61.372069 57.9997C 61.372069 52.1577 66.107869 47.4219 71.949869 47.4219C 77.791869 47.4219 82.527669 52.1577 82.527669 57.9997C 82.527669 63.8417 77.791869 68.5775 71.949869 68.5775Z"></path></g></g></g><g id="g-root-2.g-2_fr_1upwtav16i153c-fill" data-item-order="-469664" transform="translate(289.0000305175781, 291)"><g id="2.g-2_fr_1upwtav16i153c-fill" stroke="none" fill="#3cc583"><g><path d="M 149.501969 13.1012C 145.370969 8.9678 138.668969 8.966 134.535969 13.0974C 130.403969 17.2272 130.403969 23.923 134.535969 28.0529L 153.913969 47.4222L 99.582669 47.4222C 93.737969 47.4222 88.999969 52.1581 88.999969 58.0001C 88.999969 63.842 93.737969 68.5779 99.582669 68.5779L 153.913969 68.5779L 134.535969 87.9471C 130.403969 92.077 130.403969 98.7728 134.535969 102.9026C 138.668969 107.034 145.370969 107.0322 149.501969 102.8988L 186.903969 65.4758C 191.031969 61.3458 191.031969 54.6542 186.903969 50.5242L 149.501969 13.1012ZM 42.906869 51.2384L 49.668869 58.0003L 42.906869 64.7623C 41.974369 65.6948 41.974369 67.2067 42.906869 68.1392C 43.839669 69.072 45.352269 69.0716 46.284669 68.1383L 54.725969 59.6884C 55.657569 58.7558 55.657569 57.2449 54.725969 56.3123L 46.284669 47.8623C 45.352269 46.929 43.839669 46.9286 42.906869 47.8615C 41.974369 48.794 41.974369 50.3059 42.906869 51.2384ZM 26.803069 51.2384L 33.565069 58.0003L 26.803069 64.7623C 25.870569 65.6948 25.870569 67.2067 26.803069 68.1392C 27.735969 69.072 29.248469 69.0716 30.180869 68.1383L 38.622269 59.6884C 39.553869 58.7558 39.553869 57.2449 38.622269 56.3123L 30.180869 47.8623C 29.248469 46.929 27.735969 46.9286 26.803069 47.8615C 25.870569 48.794 25.870569 50.3059 26.803069 51.2384ZM 10.699369 51.2381L 17.461269 58.0001L 10.699369 64.7621C 9.766869 65.6946 9.766869 67.2064 10.699369 68.1389C 11.632169 69.0718 13.144769 69.0714 14.077069 68.1381L 22.518469 59.6881C 23.450069 58.7556 23.450069 57.2446 22.518469 56.3121L 14.077069 47.8621C 13.144769 46.9288 11.632169 46.9284 10.699369 47.8612C 9.766869 48.7937 9.766869 50.3056 10.699369 51.2381ZM 71.949869 68.5775C 66.107869 68.5775 61.372069 63.8417 61.372069 57.9997C 61.372069 52.1577 66.107869 47.4219 71.949869 47.4219C 77.791869 47.4219 82.527669 52.1577 82.527669 57.9997C 82.527669 63.8417 77.791869 68.5775 71.949869 68.5775Z"></path></g></g></g><g id="g-root-3.g-3_1_fr_1hf2s0n16i13ii-fill" data-item-order="-469660" transform="translate(493, 291)"><g id="3.g-3_1_fr_1hf2s0n16i13ii-fill" stroke="none" fill="#1eabda"><g><path d="M 149.502 13.1012C 145.371 8.9678 138.669 8.966 134.536 13.0974C 130.404 17.2272 130.404 23.923 134.536 28.0529L 153.914 47.4222L 99.5827 47.4222C 93.738 47.4222 89 52.1581 89 58.0001C 89 63.842 93.738 68.5779 99.5827 68.5779L 153.914 68.5779L 134.536 87.9471C 130.404 92.077 130.404 98.7728 134.536 102.9026C 138.669 107.034 145.371 107.0322 149.502 102.8988L 186.904 65.4758C 191.032 61.3458 191.032 54.6542 186.904 50.5242L 149.502 13.1012ZM 42.9069 51.2384L 49.6689 58.0003L 42.9069 64.7623C 41.9744 65.6948 41.9744 67.2067 42.9069 68.1392C 43.8397 69.072 45.3523 69.0716 46.2847 68.1383L 54.726 59.6884C 55.6576 58.7558 55.6576 57.2449 54.726 56.3123L 46.2847 47.8623C 45.3523 46.929 43.8397 46.9286 42.9069 47.8615C 41.9744 48.794 41.9744 50.3059 42.9069 51.2384ZM 26.8031 51.2384L 33.5651 58.0003L 26.8031 64.7623C 25.8706 65.6948 25.8706 67.2067 26.8031 68.1392C 27.736 69.072 29.2485 69.0716 30.1809 68.1383L 38.6223 59.6884C 39.5539 58.7558 39.5539 57.2449 38.6223 56.3123L 30.1809 47.8623C 29.2485 46.929 27.736 46.9286 26.8031 47.8615C 25.8706 48.794 25.8706 50.3059 26.8031 51.2384ZM 10.6994 51.2381L 17.4613 58.0001L 10.6994 64.7621C 9.7669 65.6946 9.7669 67.2064 10.6994 68.1389C 11.6322 69.0718 13.1448 69.0714 14.0771 68.1381L 22.5185 59.6881C 23.4501 58.7556 23.4501 57.2446 22.5185 56.3121L 14.0771 47.8621C 13.1448 46.9288 11.6322 46.9284 10.6994 47.8612C 9.7669 48.7937 9.7669 50.3056 10.6994 51.2381ZM 71.9499 68.5775C 66.1079 68.5775 61.3721 63.8417 61.3721 57.9997C 61.3721 52.1577 66.1079 47.4219 71.9499 47.4219C 77.7919 47.4219 82.5277 52.1577 82.5277 57.9997C 82.5277 63.8417 77.7919 68.5775 71.9499 68.5775Z"></path></g></g></g><g id="g-root-4.g-4_fr_1hf2s0n16i13ik-fill" data-item-order="-469656" transform="translate(697, 291)"><g id="4.g-4_fr_1hf2s0n16i13ik-fill" stroke="none" fill="#92bd39"><g><path d="M 149.502 13.1012C 145.371 8.9678 138.669 8.966 134.536 13.0974C 130.404 17.2272 130.404 23.923 134.536 28.0529L 153.914 47.4222L 99.5827 47.4222C 93.738 47.4222 89 52.1581 89 58.0001C 89 63.842 93.738 68.5779 99.5827 68.5779L 153.914 68.5779L 134.536 87.9471C 130.404 92.077 130.404 98.7728 134.536 102.9026C 138.669 107.034 145.371 107.0322 149.502 102.8988L 186.904 65.4758C 191.032 61.3458 191.032 54.6542 186.904 50.5242L 149.502 13.1012ZM 42.9069 51.2384L 49.6689 58.0003L 42.9069 64.7623C 41.9744 65.6948 41.9744 67.2067 42.9069 68.1392C 43.8397 69.072 45.3523 69.0716 46.2847 68.1383L 54.726 59.6884C 55.6576 58.7558 55.6576 57.2449 54.726 56.3123L 46.2847 47.8623C 45.3523 46.929 43.8397 46.9286 42.9069 47.8615C 41.9744 48.794 41.9744 50.3059 42.9069 51.2384ZM 26.8031 51.2384L 33.5651 58.0003L 26.8031 64.7623C 25.8706 65.6948 25.8706 67.2067 26.8031 68.1392C 27.736 69.072 29.2485 69.0716 30.1809 68.1383L 38.6223 59.6884C 39.5539 58.7558 39.5539 57.2449 38.6223 56.3123L 30.1809 47.8623C 29.2485 46.929 27.736 46.9286 26.8031 47.8615C 25.8706 48.794 25.8706 50.3059 26.8031 51.2384ZM 10.6994 51.2381L 17.4613 58.0001L 10.6994 64.7621C 9.7669 65.6946 9.7669 67.2064 10.6994 68.1389C 11.6322 69.0718 13.1448 69.0714 14.0771 68.1381L 22.5185 59.6881C 23.4501 58.7556 23.4501 57.2446 22.5185 56.3121L 14.0771 47.8621C 13.1448 46.9288 11.6322 46.9284 10.6994 47.8612C 9.7669 48.7937 9.7669 50.3056 10.6994 51.2381ZM 71.9499 68.5775C 66.1079 68.5775 61.3721 63.8417 61.3721 57.9997C 61.3721 52.1577 66.1079 47.4219 71.9499 47.4219C 77.7919 47.4219 82.5277 52.1577 82.5277 57.9997C 82.5277 63.8417 77.7919 68.5775 71.9499 68.5775Z"></path></g></g></g><g id="g-root-tx__143m9nb16i153i-fill" data-item-order="0" transform="translate(325, 39)"><g id="tx__143m9nb16i153i-fill" stroke="none" fill="#484848"><g><text style="font: bold 25px &quot;Roboto&quot;, sans-serif; white-space: pre;" font-weight="bold" font-size="25px" font-family="'Roboto', sans-serif"><tspan x="16" y="44.5" dominant-baseline="ideographic">ニュース記事作成プロセス</tspan></text></g></g></g><g id="g-root-tx__dhbpzr16i153j-fill" data-item-order="0" transform="translate(105, 135)"><g id="tx__dhbpzr16i153j-fill" stroke="none" fill="#3a4455"><g><text style="font: bold 20px &quot;Roboto&quot;, sans-serif; white-space: pre;" font-weight="bold" font-size="20px" font-family="'Roboto', sans-serif"><tspan x="12" y="35" dominant-baseline="ideographic">情報収集</tspan></text></g></g></g><g id="g-root-tx__4mb6tz16i13i8-fill" data-item-order="0" transform="translate(75, 171)"><g id="tx__4mb6tz16i13i8-fill" stroke="none" fill="#3a4455"><g><text style="font: 15px &quot;Roboto&quot;, sans-serif; white-space: pre;" font-size="15px" font-family="'Roboto', sans-serif"><tspan x="14.5" y="32" dominant-baseline="ideographic">編集者が木曜までに</tspan><tspan x="14.5" y="50" dominant-baseline="ideographic">必要な情報を収集す</tspan><tspan x="74.5" y="68" dominant-baseline="ideographic">る</tspan></text></g></g></g><g id="g-root-sign_1hgbq6v16i15op-fill" data-item-order="0" transform="translate(321, 171)"></g><g id="g-root-tx__mgpnx316hwvly-fill" data-item-order="0" transform="translate(531, 159)"><g id="tx__mgpnx316hwvly-fill" stroke="none" fill="#32444a"><g><text style="font: bold 20px &quot;Roboto&quot;, sans-serif; white-space: pre;" font-weight="bold" font-size="20px" font-family="'Roboto', sans-serif"><tspan x="14" y="35" dominant-baseline="ideographic">翻訳</tspan></text></g></g></g><g id="g-root-righ_18i6wrb16hyadm-fill" data-item-order="0" transform="translate(729, 171)"></g><g id="g-root-tx__1q5q2qf16hyark-fill" data-item-order="0" transform="translate(483, 195)"><g id="tx__1q5q2qf16hyark-fill" stroke="none" fill="#32444a"><g><text style="font: 15px &quot;Roboto&quot;, sans-serif; white-space: pre;" font-size="15px" font-family="'Roboto', sans-serif"><tspan x="14.5" y="29" dominant-baseline="ideographic">土曜に機械翻訳サー</tspan><tspan x="22" y="47" dominant-baseline="ideographic">ビスが使用される</tspan></text></g></g></g><g id="g-root-pers_1q8828n16hn1u6-fill" data-item-order="0" transform="translate(117, 447)"></g><g id="g-root-tx__1hcl1zr16hso3o-fill" data-item-order="0" transform="translate(309, 447)"><g id="tx__1hcl1zr16hso3o-fill" stroke="none" fill="#374840"><g><text style="font: bold 20px &quot;Roboto&quot;, sans-serif; white-space: pre;" font-weight="bold" font-size="20px" font-family="'Roboto', sans-serif"><tspan x="12" y="35" dominant-baseline="ideographic">記事作成</tspan></text></g></g></g><g id="g-root-smar_13z94d316hu4ug-fill" data-item-order="0" transform="translate(525, 447)"></g><g id="g-root-tx__zk26hj16hiw3r-fill" data-item-order="0" transform="translate(735, 447)"><g id="tx__zk26hj16hiw3r-fill" stroke="none" fill="#424736"><g><text style="font: bold 20px &quot;Roboto&quot;, sans-serif; white-space: pre;" font-weight="bold" font-size="20px" font-family="'Roboto', sans-serif"><tspan x="14" y="35" dominant-baseline="ideographic">校正</tspan></text></g></g></g><g id="g-root-tx__18ith0716hsnwp-fill" data-item-order="0" transform="translate(279, 483)"><g id="tx__18ith0716hsnwp-fill" stroke="none" fill="#374840"><g><text style="font: 15px &quot;Roboto&quot;, sans-serif; white-space: pre;" font-size="15px" font-family="'Roboto', sans-serif"><tspan x="14.5" y="29" dominant-baseline="ideographic">金曜から英語の記事</tspan><tspan x="37" y="47" dominant-baseline="ideographic">が作成される</tspan></text></g></g></g><g id="g-root-tx__4iklsn16hitq9-fill" data-item-order="0" transform="translate(687, 483)"><g id="tx__4iklsn16hitq9-fill" stroke="none" fill="#424736"><g><text style="font: 15px &quot;Roboto&quot;, sans-serif; white-space: pre;" font-size="15px" font-family="'Roboto', sans-serif"><tspan x="14.5" y="29" dominant-baseline="ideographic">土曜から日曜にかけ</tspan><tspan x="14.5" y="47" dominant-baseline="ideographic">て記事が推敲される</tspan></text></g></g></g><g id="g-root--1.line_fr_dfgaqf16i162u-stroke" data-item-order="-469683" transform="translate(146.5, 243)"><g id="-1.line_fr_dfgaqf16i162u-stroke" fill="none" stroke-linecap="round" stroke-linejoin="round" stroke-miterlimit="4" stroke="#484848" stroke-width="2" stroke-dasharray="5.0, 7.0"><g><path d="M 10 202L 10 10"></path></g></g></g><g id="g-root--1.line_1_fr_9099p316i13pc-stroke" data-item-order="-469679" transform="translate(350.5, 243)"><g id="-1.line_1_fr_9099p316i13pc-stroke" fill="none" stroke-linecap="round" stroke-linejoin="round" stroke-miterlimit="4" stroke="#484848" stroke-width="2" stroke-dasharray="5.0, 7.0"><g><path d="M 10 202L 10 10"></path></g></g></g><g id="g-root--1.line_2_fr_9099p316i13pe-stroke" data-item-order="-469675" transform="translate(554.5, 243)"><g id="-1.line_2_fr_9099p316i13pe-stroke" fill="none" stroke-linecap="round" stroke-linejoin="round" stroke-miterlimit="4" stroke="#484848" stroke-width="2" stroke-dasharray="5.0, 7.0"><g><path d="M 9.999992 202L 9.999992 10"></path></g></g></g><g id="g-root--1.line_3_fr_4m9g716i14i4-stroke" data-item-order="-469671" transform="translate(758.5, 243)"><g id="-1.line_3_fr_4m9g716i14i4-stroke" fill="none" stroke-linecap="round" stroke-linejoin="round" stroke-miterlimit="4" stroke="#484848" stroke-width="2" stroke-dasharray="5.0, 7.0"><g><path d="M 10 202L 10 10"></path></g></g></g><g id="g-root-1.g-1_1_fr_1upwtav16i153a-stroke" data-item-order="-469668" transform="translate(85.00003051757812, 291)"><g id="1.g-1_1_fr_1upwtav16i153a-stroke" fill="none" stroke-linecap="round" stroke-linejoin="round" stroke-miterlimit="4" stroke="#ffffff" stroke-width="2"><g><path d="M 149.501869 13.1012C 145.370769 8.9678 138.668969 8.9661 134.535669 13.0974C 130.403969 17.2272 130.403969 23.923 134.535669 28.0529L 153.913969 47.4222L 99.582669 47.4222C 93.737969 47.4222 88.999969 52.1581 88.999969 58.0001C 88.999969 63.842 93.737969 68.5779 99.582669 68.5779L 153.913869 68.5779L 134.535669 87.9471C 130.403969 92.077 130.403969 98.7728 134.535669 102.9026C 138.668969 107.0339 145.370769 107.0322 149.501969 102.8988L 186.904169 65.4758C 191.031869 61.3458 191.031869 54.6542 186.904169 50.5242L 149.501869 13.1012ZM 42.906869 51.2384L 49.668869 58.0003L 42.906869 64.7623C 41.974369 65.6948 41.974369 67.2067 42.906869 68.1392C 43.839669 69.072 45.352269 69.0716 46.284669 68.1383L 54.725969 59.6884C 55.657569 58.7558 55.657569 57.2449 54.725969 56.3123L 46.284669 47.8623C 45.352269 46.929 43.839669 46.9286 42.906869 47.8615C 41.974369 48.794 41.974369 50.3059 42.906869 51.2384ZM 26.803069 51.2384L 33.565069 58.0003L 26.803069 64.7623C 25.870569 65.6948 25.870569 67.2067 26.803069 68.1392C 27.735969 69.072 29.248469 69.0716 30.180869 68.1383L 38.622269 59.6884C 39.553869 58.7558 39.553869 57.2449 38.622269 56.3123L 30.180869 47.8623C 29.248469 46.929 27.735969 46.9286 26.803069 47.8615C 25.870569 48.794 25.870569 50.3059 26.803069 51.2384ZM 10.699369 51.2381L 17.461269 58.0001L 10.699369 64.7621C 9.766869 65.6946 9.766869 67.2064 10.699369 68.1389C 11.632169 69.0718 13.144769 69.0714 14.077069 68.1381L 22.518469 59.6881C 23.450069 58.7556 23.450069 57.2446 22.518469 56.3121L 14.077069 47.8621C 13.144769 46.9288 11.632169 46.9284 10.699369 47.8612C 9.766869 48.7937 9.766869 50.3056 10.699369 51.2381ZM 71.949869 68.5775C 66.107869 68.5775 61.372069 63.8417 61.372069 57.9997C 61.372069 52.1577 66.107869 47.4219 71.949869 47.4219C 77.791869 47.4219 82.527669 52.1577 82.527669 57.9997C 82.527669 63.8417 77.791869 68.5775 71.949869 68.5775Z"></path></g></g></g><g id="g-root-2.g-2_fr_1upwtav16i153c-stroke" data-item-order="-469664" transform="translate(289.0000305175781, 291)"><g id="2.g-2_fr_1upwtav16i153c-stroke" fill="none" stroke-linecap="round" stroke-linejoin="round" stroke-miterlimit="4" stroke="#ffffff" stroke-width="2"><g><path d="M 149.501869 13.1012C 145.370769 8.9678 138.668969 8.9661 134.535669 13.0974C 130.403969 17.2272 130.403969 23.923 134.535669 28.0529L 153.913969 47.4222L 99.582669 47.4222C 93.737969 47.4222 88.999969 52.1581 88.999969 58.0001C 88.999969 63.842 93.737969 68.5779 99.582669 68.5779L 153.913869 68.5779L 134.535669 87.9471C 130.403969 92.077 130.403969 98.7728 134.535669 102.9026C 138.668969 107.0339 145.370769 107.0322 149.501969 102.8988L 186.904169 65.4758C 191.031869 61.3458 191.031869 54.6542 186.904169 50.5242L 149.501869 13.1012ZM 42.906869 51.2384L 49.668869 58.0003L 42.906869 64.7623C 41.974369 65.6948 41.974369 67.2067 42.906869 68.1392C 43.839669 69.072 45.352269 69.0716 46.284669 68.1383L 54.725969 59.6884C 55.657569 58.7558 55.657569 57.2449 54.725969 56.3123L 46.284669 47.8623C 45.352269 46.929 43.839669 46.9286 42.906869 47.8615C 41.974369 48.794 41.974369 50.3059 42.906869 51.2384ZM 26.803069 51.2384L 33.565069 58.0003L 26.803069 64.7623C 25.870569 65.6948 25.870569 67.2067 26.803069 68.1392C 27.735969 69.072 29.248469 69.0716 30.180869 68.1383L 38.622269 59.6884C 39.553869 58.7558 39.553869 57.2449 38.622269 56.3123L 30.180869 47.8623C 29.248469 46.929 27.735969 46.9286 26.803069 47.8615C 25.870569 48.794 25.870569 50.3059 26.803069 51.2384ZM 10.699369 51.2381L 17.461269 58.0001L 10.699369 64.7621C 9.766869 65.6946 9.766869 67.2064 10.699369 68.1389C 11.632169 69.0718 13.144769 69.0714 14.077069 68.1381L 22.518469 59.6881C 23.450069 58.7556 23.450069 57.2446 22.518469 56.3121L 14.077069 47.8621C 13.144769 46.9288 11.632169 46.9284 10.699369 47.8612C 9.766869 48.7937 9.766869 50.3056 10.699369 51.2381ZM 71.949869 68.5775C 66.107869 68.5775 61.372069 63.8417 61.372069 57.9997C 61.372069 52.1577 66.107869 47.4219 71.949869 47.4219C 77.791869 47.4219 82.527669 52.1577 82.527669 57.9997C 82.527669 63.8417 77.791869 68.5775 71.949869 68.5775Z"></path></g></g></g><g id="g-root-3.g-3_1_fr_1hf2s0n16i13ii-stroke" data-item-order="-469660" transform="translate(493, 291)"><g id="3.g-3_1_fr_1hf2s0n16i13ii-stroke" fill="none" stroke-linecap="round" stroke-linejoin="round" stroke-miterlimit="4" stroke="#ffffff" stroke-width="2"><g><path d="M 149.5019 13.1012C 145.3708 8.9678 138.669 8.9661 134.5357 13.0974C 130.404 17.2272 130.404 23.923 134.5357 28.0529L 153.914 47.4222L 99.5827 47.4222C 93.738 47.4222 89 52.1581 89 58.0001C 89 63.842 93.738 68.5779 99.5827 68.5779L 153.9139 68.5779L 134.5357 87.9471C 130.404 92.077 130.404 98.7728 134.5357 102.9026C 138.669 107.0339 145.3708 107.0322 149.502 102.8988L 186.9042 65.4758C 191.0319 61.3458 191.0319 54.6542 186.9042 50.5242L 149.5019 13.1012ZM 42.9069 51.2384L 49.6689 58.0003L 42.9069 64.7623C 41.9744 65.6948 41.9744 67.2067 42.9069 68.1392C 43.8397 69.072 45.3523 69.0716 46.2847 68.1383L 54.726 59.6884C 55.6576 58.7558 55.6576 57.2449 54.726 56.3123L 46.2847 47.8623C 45.3523 46.929 43.8397 46.9286 42.9069 47.8615C 41.9744 48.794 41.9744 50.3059 42.9069 51.2384ZM 26.8031 51.2384L 33.5651 58.0003L 26.8031 64.7623C 25.8706 65.6948 25.8706 67.2067 26.8031 68.1392C 27.736 69.072 29.2485 69.0716 30.1809 68.1383L 38.6223 59.6884C 39.5539 58.7558 39.5539 57.2449 38.6223 56.3123L 30.1809 47.8623C 29.2485 46.929 27.736 46.9286 26.8031 47.8615C 25.8706 48.794 25.8706 50.3059 26.8031 51.2384ZM 10.6994 51.2381L 17.4613 58.0001L 10.6994 64.7621C 9.7669 65.6946 9.7669 67.2064 10.6994 68.1389C 11.6322 69.0718 13.1448 69.0714 14.0771 68.1381L 22.5185 59.6881C 23.4501 58.7556 23.4501 57.2446 22.5185 56.3121L 14.0771 47.8621C 13.1448 46.9288 11.6322 46.9284 10.6994 47.8612C 9.7669 48.7937 9.7669 50.3056 10.6994 51.2381ZM 71.9499 68.5775C 66.1079 68.5775 61.3721 63.8417 61.3721 57.9997C 61.3721 52.1577 66.1079 47.4219 71.9499 47.4219C 77.7919 47.4219 82.5277 52.1577 82.5277 57.9997C 82.5277 63.8417 77.7919 68.5775 71.9499 68.5775Z"></path></g></g></g><g id="g-root-4.g-4_fr_1hf2s0n16i13ik-stroke" data-item-order="-469656" transform="translate(697, 291)"><g id="4.g-4_fr_1hf2s0n16i13ik-stroke" fill="none" stroke-linecap="round" stroke-linejoin="round" stroke-miterlimit="4" stroke="#ffffff" stroke-width="2"><g><path d="M 149.5019 13.1012C 145.3708 8.9678 138.669 8.9661 134.5357 13.0974C 130.404 17.2272 130.404 23.923 134.5357 28.0529L 153.914 47.4222L 99.5827 47.4222C 93.738 47.4222 89 52.1581 89 58.0001C 89 63.842 93.738 68.5779 99.5827 68.5779L 153.9139 68.5779L 134.5357 87.9471C 130.404 92.077 130.404 98.7728 134.5357 102.9026C 138.669 107.0339 145.3708 107.0322 149.502 102.8988L 186.9042 65.4758C 191.0319 61.3458 191.0319 54.6542 186.9042 50.5242L 149.5019 13.1012ZM 42.9069 51.2384L 49.6689 58.0003L 42.9069 64.7623C 41.9744 65.6948 41.9744 67.2067 42.9069 68.1392C 43.8397 69.072 45.3523 69.0716 46.2847 68.1383L 54.726 59.6884C 55.6576 58.7558 55.6576 57.2449 54.726 56.3123L 46.2847 47.8623C 45.3523 46.929 43.8397 46.9286 42.9069 47.8615C 41.9744 48.794 41.9744 50.3059 42.9069 51.2384ZM 26.8031 51.2384L 33.5651 58.0003L 26.8031 64.7623C 25.8706 65.6948 25.8706 67.2067 26.8031 68.1392C 27.736 69.072 29.2485 69.0716 30.1809 68.1383L 38.6223 59.6884C 39.5539 58.7558 39.5539 57.2449 38.6223 56.3123L 30.1809 47.8623C 29.2485 46.929 27.736 46.9286 26.8031 47.8615C 25.8706 48.794 25.8706 50.3059 26.8031 51.2384ZM 10.6994 51.2381L 17.4613 58.0001L 10.6994 64.7621C 9.7669 65.6946 9.7669 67.2064 10.6994 68.1389C 11.6322 69.0718 13.1448 69.0714 14.0771 68.1381L 22.5185 59.6881C 23.4501 58.7556 23.4501 57.2446 22.5185 56.3121L 14.0771 47.8621C 13.1448 46.9288 11.6322 46.9284 10.6994 47.8612C 9.7669 48.7937 9.7669 50.3056 10.6994 51.2381ZM 71.9499 68.5775C 66.1079 68.5775 61.3721 63.8417 61.3721 57.9997C 61.3721 52.1577 66.1079 47.4219 71.9499 47.4219C 77.7919 47.4219 82.5277 52.1577 82.5277 57.9997C 82.5277 63.8417 77.7919 68.5775 71.9499 68.5775Z"></path></g></g></g><g id="g-root-tx__143m9nb16i153i-stroke" data-item-order="0" transform="translate(325, 39)"></g><g id="g-root-tx__dhbpzr16i153j-stroke" data-item-order="0" transform="translate(105, 135)"></g><g id="g-root-tx__4mb6tz16i13i8-stroke" data-item-order="0" transform="translate(75, 171)"></g><g id="g-root-sign_1hgbq6v16i15op-stroke" data-item-order="0" transform="translate(321, 171)"><g id="sign_1hgbq6v16i15op-stroke" fill="none" stroke-linecap="round" stroke-linejoin="round" stroke-miterlimit="4" stroke="#3cc583" stroke-width="2"><g><path d="M 41.959 26.44635L 27.922251 50.758499C 27.689274 51.162247 27.348125 51.4925 26.937325 51.712498L 17.468349 56.782753L 17.467424 46.215752C 17.4674 45.776752 17.582926 45.345501 17.802376 44.9655L 31.8605 20.616024C 33.470501 17.827425 37.036251 16.871975 39.825001 18.481976C 42.613499 20.091974 43.569 23.657749 41.959 26.44635ZM 24.414051 64.431C 25.580774 64.431 25.134949 64.429001 28.24675 64.429001C 38.985249 64.429001 45.639 59.548996 49.314751 51.670753C 52.777748 44.2495 45.341751 39.57325 40.040249 48.06525C 34.008076 57.728249 40.074001 64.429001 45.841751 64.429001C 50.45575 64.429001 54.78125 60.108498 56.063 58.011497C 55.830002 60.108498 56.153496 64.429001 61.746502 64.429001L 67.395004 64.429001"></path></g></g></g><g id="g-root-tx__mgpnx316hwvly-stroke" data-item-order="0" transform="translate(531, 159)"></g><g id="g-root-righ_18i6wrb16hyadm-stroke" data-item-order="0" transform="translate(729, 171)"><g id="righ_18i6wrb16hyadm-stroke" fill="none" stroke-linecap="round" stroke-linejoin="round" stroke-miterlimit="4" stroke="#92bd39" stroke-width="2"><g><path d="M 11.875 17.5L 68.125 17.5M 11.875 28.49975L 68.125 28.49975M 11.875 40L 68.125 40M 11.875 50.999752L 68.125 50.999752M 23.125 62.5L 68.125 62.5"></path></g></g></g><g id="g-root-tx__1q5q2qf16hyark-stroke" data-item-order="0" transform="translate(483, 195)"></g><g id="g-root-pers_1q8828n16hn1u6-stroke" data-item-order="0" transform="translate(117, 447)"><g id="pers_1q8828n16hn1u6-stroke" fill="none" stroke-linecap="round" stroke-linejoin="round" stroke-miterlimit="4" stroke="#4e88e7" stroke-width="2"><g><path d="M 39.375 68.125C 36.375 63.875 31.375 61.125 25.625 61.125C 19.875 61.125 14.875 63.875 11.875 68.125M 25.62525 38.375L 25.62525 30.875025M 11.875 45.625L 39.375 45.625M 15.375 48.375C 15.625 53.875 20.125 58.375 25.625 58.375C 31.375 58.375 35.875 53.875 35.875 48.125L 35.875 43.625C 35.875 37.875 31.375 33.375023 25.625 33.375023C 20.125 33.375023 15.625 37.875 15.375 43.375L 15.375 48.375ZM 51.875 34.375C 58.088249 34.375 63.125 29.3382 63.125 23.125C 63.125 16.9118 58.088249 11.875 51.875 11.875C 45.661751 11.875 40.625 16.9118 40.625 23.125C 40.625 29.3382 45.661751 34.375 51.875 34.375ZM 10 10M 68.125 39.375L 60.125 31.125027"></path></g></g></g><g id="g-root-tx__1hcl1zr16hso3o-stroke" data-item-order="0" transform="translate(309, 447)"></g><g id="g-root-smar_13z94d316hu4ug-stroke" data-item-order="0" transform="translate(525, 447)"><g id="smar_13z94d316hu4ug-stroke" fill="none" stroke-linecap="round" stroke-linejoin="round" stroke-miterlimit="4" stroke="#1eabda" stroke-width="2"><g><path d="M 47.774998 28.59L 32.669998 28.59M 42.557499 23.375L 47.774998 28.59L 42.557499 33.807499M 32.669998 44.7575L 47.774998 44.7575M 37.887501 39.540001L 32.669998 44.7575L 37.887501 49.9725M 11.875 42.939999L 11.875 27.940001C 11.875 25.178577 14.113576 22.940001 16.875 22.940001C 19.636423 22.940001 21.875 25.178577 21.875 27.940001L 21.875 42.939999M 11.875 37.939999L 21.875 37.939999M 58.125 48.564999L 58.125 53.565002M 48.125 53.565002L 68.125 53.565002M 63.75 53.565002C 63.75 53.565002 58.125 68.565002 48.125 68.565002M 68.125 68.565002C 58.125 68.565002 52.5 53.565002 52.5 53.565002M 43.997501 58.75L 24.335001 58.75M 38.709999 63.125C 39.05518 63.125 39.334999 63.404823 39.334999 63.75L 39.334999 63.75C 39.334999 64.095177 39.05518 64.375 38.709999 64.375L 38.709999 64.375C 38.544037 64.375671 38.384674 64.310028 38.267319 64.192673C 38.149963 64.075325 38.084332 63.915962 38.084999 63.75L 38.084999 63.75C 38.084332 63.58403 38.149963 63.424675 38.267319 63.30732C 38.384674 63.189964 38.544037 63.124332 38.709999 63.125M 38.709999 63.125L 38.709999 63.125M 24.335001 18.775L 24.335001 16.25C 24.335001 13.488576 26.573576 11.25 29.335001 11.25L 50.584999 11.25C 53.346424 11.25 55.584999 13.488576 55.584999 16.25L 55.584999 41.185001M 40.587498 68.75L 29.3375 68.75C 26.576077 68.75 24.3375 66.511429 24.3375 63.75L 24.3375 49.215"></path></g></g></g><g id="g-root-tx__zk26hj16hiw3r-stroke" data-item-order="0" transform="translate(735, 447)"></g><g id="g-root-tx__18ith0716hsnwp-stroke" data-item-order="0" transform="translate(279, 483)"></g><g id="g-root-tx__4iklsn16hitq9-stroke" data-item-order="0" transform="translate(687, 483)"></g></g></g></svg>